<mxfile host="Electron" modified="2023-05-02T12:30:07.619Z" agent="Mozilla/5.0 (Macintosh; Intel Mac OS X 10_15_7) AppleWebKit/537.36 (KHTML, like Gecko) draw.io/21.1.2 Chrome/106.0.5249.199 Electron/21.4.3 Safari/537.36" etag="IhdmkQdfe2J8xkphLjPj" version="21.1.2" type="device">
  <diagram name="Page-1" id="77VvU_hCpBOIH4deGASa">
    <mxGraphModel dx="1589" dy="562" grid="1" gridSize="10" guides="1" tooltips="1" connect="1" arrows="1" fold="1" page="0" pageScale="1" pageWidth="827" pageHeight="1169" math="0" shadow="0">
      <root>
        <mxCell id="0" />
        <mxCell id="1" parent="0" />
        <mxCell id="UCFuStM6_gSOsOG1VShK-23" value="" style="shape=cross;whiteSpace=wrap;html=1;fillColor=#000000;" vertex="1" parent="1">
          <mxGeometry x="160" y="283" width="40" height="40" as="geometry" />
        </mxCell>
        <mxCell id="UCFuStM6_gSOsOG1VShK-25" value="1" style="rounded=0;whiteSpace=wrap;html=1;fillColor=#dae8fc;strokeColor=#6c8ebf;" vertex="1" parent="1">
          <mxGeometry x="220" y="160" width="150" height="30" as="geometry" />
        </mxCell>
        <mxCell id="UCFuStM6_gSOsOG1VShK-26" value="2" style="rounded=0;whiteSpace=wrap;html=1;fillColor=#dae8fc;strokeColor=#6c8ebf;" vertex="1" parent="1">
          <mxGeometry x="220" y="190" width="150" height="30" as="geometry" />
        </mxCell>
        <mxCell id="UCFuStM6_gSOsOG1VShK-27" value="3" style="rounded=0;whiteSpace=wrap;html=1;fillColor=#dae8fc;strokeColor=#6c8ebf;" vertex="1" parent="1">
          <mxGeometry x="220" y="220" width="150" height="30" as="geometry" />
        </mxCell>
        <mxCell id="UCFuStM6_gSOsOG1VShK-28" value="4" style="rounded=0;whiteSpace=wrap;html=1;fillColor=#dae8fc;strokeColor=#6c8ebf;" vertex="1" parent="1">
          <mxGeometry x="220" y="250" width="150" height="30" as="geometry" />
        </mxCell>
        <mxCell id="UCFuStM6_gSOsOG1VShK-29" value="5" style="rounded=0;whiteSpace=wrap;html=1;fillColor=#dae8fc;strokeColor=#6c8ebf;" vertex="1" parent="1">
          <mxGeometry x="220" y="280" width="150" height="30" as="geometry" />
        </mxCell>
        <mxCell id="UCFuStM6_gSOsOG1VShK-30" value="6" style="rounded=0;whiteSpace=wrap;html=1;fillColor=#dae8fc;strokeColor=#6c8ebf;" vertex="1" parent="1">
          <mxGeometry x="220" y="310" width="150" height="30" as="geometry" />
        </mxCell>
        <mxCell id="UCFuStM6_gSOsOG1VShK-31" value="7" style="rounded=0;whiteSpace=wrap;html=1;fillColor=#dae8fc;strokeColor=#6c8ebf;" vertex="1" parent="1">
          <mxGeometry x="220" y="340" width="150" height="30" as="geometry" />
        </mxCell>
        <mxCell id="UCFuStM6_gSOsOG1VShK-32" value="8" style="rounded=0;whiteSpace=wrap;html=1;fillColor=#dae8fc;strokeColor=#6c8ebf;" vertex="1" parent="1">
          <mxGeometry x="220" y="370" width="150" height="30" as="geometry" />
        </mxCell>
        <mxCell id="UCFuStM6_gSOsOG1VShK-33" value="0" style="rounded=0;whiteSpace=wrap;html=1;fillColor=#dae8fc;strokeColor=#6c8ebf;" vertex="1" parent="1">
          <mxGeometry x="220" y="130" width="150" height="30" as="geometry" />
        </mxCell>
        <mxCell id="UCFuStM6_gSOsOG1VShK-34" value="A" style="rounded=0;whiteSpace=wrap;html=1;fillColor=#d5e8d4;strokeColor=#82b366;" vertex="1" parent="1">
          <mxGeometry x="450" y="160" width="150" height="30" as="geometry" />
        </mxCell>
        <mxCell id="UCFuStM6_gSOsOG1VShK-35" value="A" style="rounded=0;whiteSpace=wrap;html=1;fillColor=#d5e8d4;strokeColor=#82b366;" vertex="1" parent="1">
          <mxGeometry x="450" y="190" width="150" height="30" as="geometry" />
        </mxCell>
        <mxCell id="UCFuStM6_gSOsOG1VShK-36" value="A" style="rounded=0;whiteSpace=wrap;html=1;fillColor=#d5e8d4;strokeColor=#82b366;" vertex="1" parent="1">
          <mxGeometry x="450" y="220" width="150" height="30" as="geometry" />
        </mxCell>
        <mxCell id="UCFuStM6_gSOsOG1VShK-37" value="A" style="rounded=0;whiteSpace=wrap;html=1;fillColor=#d5e8d4;strokeColor=#82b366;" vertex="1" parent="1">
          <mxGeometry x="450" y="250" width="150" height="30" as="geometry" />
        </mxCell>
        <mxCell id="UCFuStM6_gSOsOG1VShK-38" value="B" style="rounded=0;whiteSpace=wrap;html=1;fillColor=#d5e8d4;strokeColor=#82b366;" vertex="1" parent="1">
          <mxGeometry x="450" y="340" width="150" height="30" as="geometry" />
        </mxCell>
        <mxCell id="UCFuStM6_gSOsOG1VShK-39" value="B" style="rounded=0;whiteSpace=wrap;html=1;fillColor=#d5e8d4;strokeColor=#82b366;" vertex="1" parent="1">
          <mxGeometry x="450" y="370" width="150" height="30" as="geometry" />
        </mxCell>
        <mxCell id="UCFuStM6_gSOsOG1VShK-40" value="B" style="rounded=0;whiteSpace=wrap;html=1;fillColor=#d5e8d4;strokeColor=#82b366;" vertex="1" parent="1">
          <mxGeometry x="450" y="400" width="150" height="30" as="geometry" />
        </mxCell>
        <mxCell id="UCFuStM6_gSOsOG1VShK-41" value="B" style="rounded=0;whiteSpace=wrap;html=1;fillColor=#d5e8d4;strokeColor=#82b366;" vertex="1" parent="1">
          <mxGeometry x="450" y="430" width="150" height="30" as="geometry" />
        </mxCell>
        <mxCell id="UCFuStM6_gSOsOG1VShK-42" value="A" style="rounded=0;whiteSpace=wrap;html=1;fillColor=#d5e8d4;strokeColor=#82b366;" vertex="1" parent="1">
          <mxGeometry x="450" y="130" width="150" height="30" as="geometry" />
        </mxCell>
        <mxCell id="UCFuStM6_gSOsOG1VShK-43" value="" style="shape=cross;whiteSpace=wrap;html=1;strokeColor=#000000;fillColor=#000000;" vertex="1" parent="1">
          <mxGeometry x="390" y="282" width="40" height="40" as="geometry" />
        </mxCell>
        <mxCell id="UCFuStM6_gSOsOG1VShK-44" value="Vector embeddings" style="text;html=1;strokeColor=none;fillColor=none;align=center;verticalAlign=middle;whiteSpace=wrap;rounded=0;" vertex="1" parent="1">
          <mxGeometry x="10" y="90" width="110" height="30" as="geometry" />
        </mxCell>
        <mxCell id="UCFuStM6_gSOsOG1VShK-45" value="Position embeddings" style="text;html=1;strokeColor=none;fillColor=none;align=center;verticalAlign=middle;whiteSpace=wrap;rounded=0;" vertex="1" parent="1">
          <mxGeometry x="230" y="90" width="130" height="30" as="geometry" />
        </mxCell>
        <mxCell id="UCFuStM6_gSOsOG1VShK-46" value="Sentence embeddings" style="text;html=1;strokeColor=none;fillColor=none;align=center;verticalAlign=middle;whiteSpace=wrap;rounded=0;" vertex="1" parent="1">
          <mxGeometry x="460" y="90" width="130" height="30" as="geometry" />
        </mxCell>
        <mxCell id="UCFuStM6_gSOsOG1VShK-48" value="" style="shape=curlyBracket;whiteSpace=wrap;html=1;rounded=1;flipH=1;labelPosition=right;verticalLabelPosition=middle;align=left;verticalAlign=middle;strokeWidth=3;" vertex="1" parent="1">
          <mxGeometry x="630" y="130" width="20" height="360" as="geometry" />
        </mxCell>
        <mxCell id="UCFuStM6_gSOsOG1VShK-58" value="Input" style="text;html=1;strokeColor=none;fillColor=none;align=center;verticalAlign=middle;whiteSpace=wrap;rounded=0;" vertex="1" parent="1">
          <mxGeometry x="690" y="90" width="130" height="30" as="geometry" />
        </mxCell>
        <mxCell id="UCFuStM6_gSOsOG1VShK-113" style="edgeStyle=orthogonalEdgeStyle;rounded=0;orthogonalLoop=1;jettySize=auto;html=1;exitX=1;exitY=0.5;exitDx=0;exitDy=0;entryX=0;entryY=0.75;entryDx=0;entryDy=0;strokeWidth=3;" edge="1" parent="1" source="UCFuStM6_gSOsOG1VShK-60" target="UCFuStM6_gSOsOG1VShK-90">
          <mxGeometry relative="1" as="geometry" />
        </mxCell>
        <mxCell id="UCFuStM6_gSOsOG1VShK-60" value="[CLS] Raccoon ##s [MSK] eat ##ing [SEP]&lt;br&gt;They are play ##ful [SEP]&amp;nbsp;" style="text;html=1;strokeColor=none;fillColor=none;align=center;verticalAlign=middle;whiteSpace=wrap;rounded=0;" vertex="1" parent="1">
          <mxGeometry x="-190" y="288" width="140" height="30" as="geometry" />
        </mxCell>
        <mxCell id="UCFuStM6_gSOsOG1VShK-65" value="" style="group" vertex="1" connectable="0" parent="1">
          <mxGeometry x="680" y="125" width="150" height="270" as="geometry" />
        </mxCell>
        <mxCell id="UCFuStM6_gSOsOG1VShK-49" value="" style="rounded=0;whiteSpace=wrap;html=1;fillColor=#fff2cc;strokeColor=#d6b656;" vertex="1" parent="UCFuStM6_gSOsOG1VShK-65">
          <mxGeometry y="30" width="150" height="30" as="geometry" />
        </mxCell>
        <mxCell id="UCFuStM6_gSOsOG1VShK-50" value="" style="rounded=0;whiteSpace=wrap;html=1;fillColor=#fff2cc;strokeColor=#d6b656;" vertex="1" parent="UCFuStM6_gSOsOG1VShK-65">
          <mxGeometry y="60" width="150" height="30" as="geometry" />
        </mxCell>
        <mxCell id="UCFuStM6_gSOsOG1VShK-51" value="" style="rounded=0;whiteSpace=wrap;html=1;fillColor=#fff2cc;strokeColor=#d6b656;" vertex="1" parent="UCFuStM6_gSOsOG1VShK-65">
          <mxGeometry y="90" width="150" height="30" as="geometry" />
        </mxCell>
        <mxCell id="UCFuStM6_gSOsOG1VShK-52" value="" style="rounded=0;whiteSpace=wrap;html=1;fillColor=#fff2cc;strokeColor=#d6b656;" vertex="1" parent="UCFuStM6_gSOsOG1VShK-65">
          <mxGeometry y="120" width="150" height="30" as="geometry" />
        </mxCell>
        <mxCell id="UCFuStM6_gSOsOG1VShK-53" value="" style="rounded=0;whiteSpace=wrap;html=1;fillColor=#fff2cc;strokeColor=#d6b656;" vertex="1" parent="UCFuStM6_gSOsOG1VShK-65">
          <mxGeometry y="150" width="150" height="30" as="geometry" />
        </mxCell>
        <mxCell id="UCFuStM6_gSOsOG1VShK-54" value="" style="rounded=0;whiteSpace=wrap;html=1;fillColor=#fff2cc;strokeColor=#d6b656;" vertex="1" parent="UCFuStM6_gSOsOG1VShK-65">
          <mxGeometry y="180" width="150" height="30" as="geometry" />
        </mxCell>
        <mxCell id="UCFuStM6_gSOsOG1VShK-55" value="" style="rounded=0;whiteSpace=wrap;html=1;fillColor=#fff2cc;strokeColor=#d6b656;" vertex="1" parent="UCFuStM6_gSOsOG1VShK-65">
          <mxGeometry y="210" width="150" height="30" as="geometry" />
        </mxCell>
        <mxCell id="UCFuStM6_gSOsOG1VShK-56" value="" style="rounded=0;whiteSpace=wrap;html=1;fillColor=#fff2cc;strokeColor=#d6b656;" vertex="1" parent="UCFuStM6_gSOsOG1VShK-65">
          <mxGeometry y="240" width="150" height="30" as="geometry" />
        </mxCell>
        <mxCell id="UCFuStM6_gSOsOG1VShK-57" value="" style="rounded=0;whiteSpace=wrap;html=1;fillColor=#fff2cc;strokeColor=#d6b656;" vertex="1" parent="UCFuStM6_gSOsOG1VShK-65">
          <mxGeometry width="150" height="30" as="geometry" />
        </mxCell>
        <mxCell id="UCFuStM6_gSOsOG1VShK-118" style="edgeStyle=orthogonalEdgeStyle;rounded=0;orthogonalLoop=1;jettySize=auto;html=1;exitX=1;exitY=0.5;exitDx=0;exitDy=0;entryX=0;entryY=0.75;entryDx=0;entryDy=0;strokeWidth=3;" edge="1" parent="1" source="UCFuStM6_gSOsOG1VShK-67" target="UCFuStM6_gSOsOG1VShK-109">
          <mxGeometry relative="1" as="geometry" />
        </mxCell>
        <mxCell id="UCFuStM6_gSOsOG1VShK-67" value="" style="shape=image;verticalLabelPosition=bottom;labelBackgroundColor=default;verticalAlign=top;aspect=fixed;imageAspect=0;image=data:image/png,iVBORw0KGgoAAAANSUhEUgAAAgQAAAFmCAYAAAAS1oJaAAAMP2lDQ1BJQ0MgUHJvZmlsZQAASImVVwdYU8kWnluSkEBooUsJvQkiNYCUEFrovdkISYBQYgwEFXtZVHDtogI2dFVEwQqIBUUUC4ti74sFFWVdLNiVNymg677yvfm+ufPff87858y5c+/cAUDtBEckykPVAcgXForjQgLoKalpdNJTgANjoAu8AIPDLRAxY2IiACxD7d/Lu+sAkbZXHKRa/+z/r0WDxy/gAoDEQJzBK+DmQ3wQALyKKxIXAkCU8uZTCkVSDCvQEsMAIV4kxVlyXCXFGXK8V2aTEMeCuA0AJRUOR5wFgOolyNOLuFlQQ7UfYichTyAEQI0OsW9+/iQexOkQ20AbEcRSfUbGDzpZf9PMGNbkcLKGsXwusqIUKCgQ5XGm/Z/p+N8lP08y5MMKVpVscWicdM4wbzdzJ4VLsQrEfcKMqGiINSH+IODJ7CFGKdmS0ES5PWrILWDBnAEdiJ14nMBwiA0hDhbmRUUo+IxMQTAbYrhC0KmCQnYCxHoQL+IXBMUrbDaLJ8UpfKENmWIWU8Gf5YhlfqW+7ktyE5kK/dfZfLZCH1Mtzk5IhpgCsUWRICkKYlWIHQty48MVNmOKs1lRQzZiSZw0fguI4/jCkAC5PlaUKQ6OU9iX5hcMzRfbnC1gRynw/sLshFB5frA2LkcWP5wLdokvZCYO6fALUiKG5sLjBwbJ54494wsT4xU6H0SFAXHysThFlBejsMfN+HkhUt4MYteConjFWDypEC5IuT6eKSqMSZDHiRfncMJi5PHgy0EEYIFAQAcSWDPAJJADBJ19jX3wTt4TDDhADLIAHzgomKERybIeIbzGg2LwJ0R8UDA8LkDWywdFkP86zMqvDiBT1lskG5ELnkCcD8JBHryXyEYJh70lgceQEfzDOwdWLow3D1Zp/7/nh9jvDBMyEQpGMuSRrjZkSQwiBhJDicFEW9wA98W98Qh49YfVGWfgnkPz+G5PeELoIjwkXCN0E25NFMwT/xRlJOiG+sGKXGT8mAvcCmq64QG4D1SHyrgObgAccFfoh4n7Qc9ukGUp4pZmhf6T9t9m8MPTUNiRncgoWZfsT7b5eaSqnarbsIo01z/mRx5rxnC+WcM9P/tn/ZB9HmzDf7bEFmEHsHbsJHYOO4o1AjrWgjVhHdgxKR5eXY9lq2vIW5wsnlyoI/iHv6EnK81kgVOtU6/TF3lfIX+q9BsNWJNE08SCrOxCOhPuCHw6W8h1HEl3dnJ2AUC6v8g/X29iZfsGotPxnZv/BwA+LYODg0e+c2EtAOzzgK//4e+cDQNuHcoAnD3MlYiL5BwuvRDgV0INvmn6cP8yBzZwPs7AHXgDfxAEwkA0SACpYAKMPhuuczGYAmaAuaAElIHlYA2oAJvAVrAT7AH7QSM4Ck6CM+ACuASugTtw9fSAF6AfvAOfEQQhIVSEhugjJoglYo84IwzEFwlCIpA4JBVJR7IQISJBZiDzkTJkJVKBbEFqkH3IYeQkcg7pQm4hD5Be5DXyCcVQFVQLNUKt0FEoA2Wi4WgCOh7NQiejxegCdCm6Dq1Gd6MN6En0AnoN7UZfoAMYwJQxHcwUc8AYGAuLxtKwTEyMzcJKsXKsGqvDmuFzvoJ1Y33YR5yI03A67gBXcCieiHPxyfgsfAlege/EG/A2/Ar+AO/HvxGoBEOCPcGLwCakELIIUwglhHLCdsIhwmn4LvUQ3hGJRB2iNdEDvoupxBzidOIS4gZiPfEEsYv4iDhAIpH0SfYkH1I0iUMqJJWQ1pN2k1pIl0k9pA9KykomSs5KwUppSkKleUrlSruUjitdVnqq9JmsTrYke5GjyTzyNPIy8jZyM/kiuYf8maJBsab4UBIoOZS5lHWUOsppyl3KG2VlZTNlT+VYZYHyHOV1ynuVzyo/UP6ooqlip8JSGaciUVmqskPlhMotlTdUKtWK6k9NoxZSl1JrqKeo96kfVGmqjqpsVZ7qbNVK1QbVy6ov1chqlmpMtQlqxWrlagfULqr1qZPVrdRZ6hz1WeqV6ofVb6gPaNA0RmtEa+RrLNHYpXFO45kmSdNKM0iTp7lAc6vmKc1HNIxmTmPRuLT5tG2007QeLaKWtRZbK0erTGuPVqdWv7amtqt2kvZU7UrtY9rdOpiOlQ5bJ09nmc5+nes6n3SNdJm6fN3FunW6l3Xf643Q89fj65Xq1etd0/ukT9cP0s/VX6HfqH/PADewM4g1mGKw0eC0Qd8IrRHeI7gjSkfsH3HbEDW0M4wznG641bDDcMDI2CjESGS03uiUUZ+xjrG/cY7xauPjxr0mNBNfE4HJapMWk+d0bTqTnkdfR2+j95samoaaSky3mHaafjazNks0m2dWb3bPnGLOMM80X23eat5vYWIRaTHDotbitiXZkmGZbbnWst3yvZW1VbLVQqtGq2fWetZs62LrWuu7NlQbP5vJNtU2V22JtgzbXNsNtpfsUDs3u2y7SruL9qi9u73AfoN910jCSM+RwpHVI284qDgwHYocah0eOOo4RjjOc2x0fDnKYlTaqBWj2kd9c3JzynPa5nRntObosNHzRjePfu1s58x1rnS+6kJ1CXaZ7dLk8srV3pXvutH1phvNLdJtoVur21d3D3exe517r4eFR7pHlccNhhYjhrGEcdaT4BngOdvzqOdHL3evQq/9Xn95O3jneu/yfjbGegx/zLYxj3zMfDg+W3y6fem+6b6bfbv9TP04ftV+D/3N/Xn+2/2fMm2ZOczdzJcBTgHigEMB71lerJmsE4FYYEhgaWBnkGZQYlBF0P1gs+Cs4Nrg/hC3kOkhJ0IJoeGhK0JvsI3YXHYNuz/MI2xmWFu4Snh8eEX4wwi7CHFEcyQaGRa5KvJulGWUMKoxGkSzo1dF34uxjpkccySWGBsTWxn7JG503Iy49nha/MT4XfHvEgISliXcSbRJlCS2JqkljUuqSXqfHJi8Mrk7ZVTKzJQLqQapgtSmNFJaUtr2tIGxQWPXjO0Z5zauZNz18dbjp44/N8FgQt6EYxPVJnImHkgnpCen70r/wonmVHMGMtgZVRn9XBZ3LfcFz5+3mtfL9+Gv5D/N9MlcmfksyydrVVZvtl92eXafgCWoELzKCc3ZlPM+Nzp3R+5gXnJefb5Sfnr+YaGmMFfYNsl40tRJXSJ7UYmoe7LX5DWT+8Xh4u0FSMH4gqZCLfgj3yGxkfwieVDkW1RZ9GFK0pQDUzWmCqd2TLObtnja0+Lg4t+m49O501tnmM6YO+PBTObMLbOQWRmzWmebz14wu2dOyJydcylzc+f+Ps9p3sp5b+cnz29eYLRgzoJHv4T8UluiWiIuubHQe+GmRfgiwaLOxS6L1y/+VsorPV/mVFZe9mUJd8n5X0f/uu7XwaWZSzuXuS/buJy4XLj8+gq/FTtXaqwsXvloVeSqhtX01aWr366ZuOZcuWv5prWUtZK13esi1jWtt1i/fP2XiuyKa5UBlfVVhlWLq95v4G24vNF/Y90mo01lmz5tFmy+uSVkS0O1VXX5VuLWoq1PtiVta/+N8VvNdoPtZdu/7hDu6N4Zt7OtxqOmZpfhrmW1aK2ktnf3uN2X9gTuaapzqNtSr1Nfthfslex9vi993/X94ftbDzAO1B20PFh1iHaotAFpmNbQ35jd2N2U2tR1OOxwa7N386Ejjkd2HDU9WnlM+9iy45TjC44PthS3DJwQneg7mXXyUevE1junUk5dbYtt6zwdfvrsmeAzp9qZ7S1nfc4ePed17vB5xvnGC+4XGjrcOg797vb7oU73zoaLHhebLnleau4a03X8st/lk1cCr5y5yr564VrUta7riddv3hh3o/sm7+azW3m3Xt0uuv35zpy7hLul99Tvld83vF/9h+0f9d3u3cceBD7oeBj/8M4j7qMXjwsef+lZ8IT6pPypydOaZ87PjvYG9156PvZ5zwvRi899JX9q/Fn10ublwb/8/+roT+nveSV+Nfh6yRv9Nzveur5tHYgZuP8u/93n96Uf9D/s/Mj42P4p+dPTz1O+kL6s+2r7tflb+Le7g/mDgyKOmCP7FcBgRTMzAXi9AwBqKgA0eD6jjJWf/2QFkZ9ZZQj8Jyw/I8qKOwB18P89tg/+3dwAYO82ePyC+mrjAIihApDgCVAXl+E6dFaTnSulhQjPAZtDv2bkZ4B/U+Rnzh/i/rkFUlVX8HP7L+E/fK3RYE9CAAAAlmVYSWZNTQAqAAAACAAFARIAAwAAAAEAAQAAARoABQAAAAEAAABKARsABQAAAAEAAABSASgAAwAAAAEAAgAAh2kABAAAAAEAAABaAAAAAAAAAJAAAAABAAAAkAAAAAEAA5KGAAcAAAASAAAAhKACAAQAAAABAAACBKADAAQAAAABAAABZgAAAABBU0NJSQAAAFNjcmVlbnNob3R5k/7OAAAACXBIWXMAABYlAAAWJQFJUiTwAAAC12lUWHRYTUw6Y29tLmFkb2JlLnhtcAAAAAAAPHg6eG1wbWV0YSB4bWxuczp4PSJhZG9iZTpuczptZXRhLyIgeDp4bXB0az0iWE1QIENvcmUgNi4wLjAiPgogICA8cmRmOlJERiB4bWxuczpyZGY9Imh0dHA6Ly93d3cudzMub3JnLzE5OTkvMDIvMjItcmRmLXN5bnRheC1ucyMiPgogICAgICA8cmRmOkRlc2NyaXB0aW9uIHJkZjphYm91dD0iIgogICAgICAgICAgICB4bWxuczpleGlmPSJodHRwOi8vbnMuYWRvYmUuY29tL2V4aWYvMS4wLyIKICAgICAgICAgICAgeG1sbnM6dGlmZj0iaHR0cDovL25zLmFkb2JlLmNvbS90aWZmLzEuMC8iPgogICAgICAgICA8ZXhpZjpQaXhlbFhEaW1lbnNpb24+NTE0PC9leGlmOlBpeGVsWERpbWVuc2lvbj4KICAgICAgICAgPGV4aWY6VXNlckNvbW1lbnQ+U2NyZWVuc2hvdDwvZXhpZjpVc2VyQ29tbWVudD4KICAgICAgICAgPGV4aWY6UGl4ZWxZRGltZW5zaW9uPjkwNDwvZXhpZjpQaXhlbFlEaW1lbnNpb24+CiAgICAgICAgIDx0aWZmOlJlc29sdXRpb25Vbml0PjI8L3RpZmY6UmVzb2x1dGlvblVuaXQ+CiAgICAgICAgIDx0aWZmOllSZXNvbHV0aW9uPjE0NDwvdGlmZjpZUmVzb2x1dGlvbj4KICAgICAgICAgPHRpZmY6WFJlc29sdXRpb24+MTQ0PC90aWZmOlhSZXNvbHV0aW9uPgogICAgICAgICA8dGlmZjpPcmllbnRhdGlvbj4xPC90aWZmOk9yaWVudGF0aW9uPgogICAgICA8L3JkZjpEZXNjcmlwdGlvbj4KICAgPC9yZGY6UkRGPgo8L3g6eG1wbWV0YT4KCHU0EQAAQABJREFUeAHsnQVcVMsXx3/PAAMUmzAxUBEERExAFBMbA8XAbn1i57O7u1vsfna3gtjdiii2giIi6v/M9Q8P2AV2gV12lzOfz8LeuRNnvnfv7rkzZ8756zclqCj9/PkTHz9+REhICIKDg3H9+nWcO3dO6u3SpUsq6pWbZQJMgAkwASagXQSyZs2KokWLInv27LCzs0OxYsVgZGSEbNmywcDAQC2D+UsVCoFQAjZv3oyDBw/i0aNHePPmDYKCgtQyIO6ECTABJsAEmIC2E0iXLh1MTU2RP39+WFpaok6dOqhVqxb09PRUNrRkUwjev3+Py5cvY+nSpdizZw/CwsJUJjQ3zASYABNgAkwgtRHIkSMHunbtCnd3dxQvXhwZM2ZMVgRJVgjED/+iRYuwevVq3L59G+Hh4ckqIDfGBJgAE2ACTIAJ/EdALCtUrFgRI0aMgIODw38nkvpOLBkkJpFdwO8dO3b8pnUOYYPAL2bAnwH+DPBngD8D/BlQ82fAw8Pjt7+//2+y2UvMT3mMOohxpODBu3fvfru5uf2mtQy++Gq++Kx8sfLJnwH+DPBngD8D0T8DNGPwe9y4cQr+gsddTOklg5UrV2LAgAEQNgMJJWEUYV64MMzM8sKqVCnY25eFad68yJUrJ3KQ5aSwquTEBJgAE2ACTCC1E3j56hW+fPmKwMBABL54gRMnjiHgRSAePXyA169fK4SnfPnymDt3Lv3W2itUPnYhhRUCYRvQs2dPrFmzBt+/f4/djsxxY/cm8PJqh9LWVpLhQ3IbP8h0yBlMgAkwASbABHSEwK9fv/Dt2zd8+PABx46fxPJlS3Hlin+8o/vrr7+kB20fHx/Url073rLyTiqkEIjZgO7du0tbCeU1EpmXN28+NGrUCC09PVGyRAmkSZMm8hT/ZwJMgAkwASbABBJJIJSUg0t+l7B4ySIc2L8/XgN+fX19TJ48WfrdTp8+vcI9JqgQfPr0CWIa4v79+8LeQG7DosPOXbqhn3dfiG0RrAjIxcSZTIAJMAEmwASSRCAiIgJPnj5Fx44dcdk/bgd/4neZDA4hlvnTpk2rUJ9pR1GKq+Tbt2/RunVrXLx4Ua4y8NdfaVCBtj7MX7AAXm3bwNDQEGLKghMTYAJMgAkwASaQ/ATEA3cO2nbYuHFjssfLhbt370jegGP3JJYc7ty5A/HfxcUl9mm5x3HOEPz48QO2tra4deuW3Iois337jiDLRlIE1ONWMU5B+AQTYAJMgAkwgVRI4N79B3Bv3AjPnj2Nc/QTJ07E4MGD4zwfeSLORf6hQ4eS5nE3slyM/2L3wOw5czF12hRWBmKQ4QMmwASYABNgAuojYFGsKE6dOo22bb3i7FQoBPvJ7iChJHeGYMWKFejQoYPcumJdYtOWbaherarc85zJBJgAE2ACTIAJqJdA2Pcw9OjeE1u2bJK7xC8CJIklhLy09T+uJDND8ODBg3inFlatXsvKQFw0OZ8JMAEmwASYQAoQyKCfAXPnzYFXu/Zye//y5YtkiBgaGir3vMiMoRCIcMViqUAYE8ZO6dPrYeKkKahfr27sU3zMBJgAE2ACTIAJpDCBTBkzYQptN2zWzEOugb+IQHz06NE4pYyhECxevBhbt26VW7hL1y7o2aO73HOcyQSYABNgAkyACaQ8gQwZMkjG/sWLl5ArjJeXl7R0IO9klEIg/A3Mnz9fXhkYm5igf/8Bcs9xJhNgAkyACTABJqA5BExMjDF16nQIu4HYSXg+nD17tlw7gyiFQEwjCOdDsVOePHnIK9JBad9j7HN8zASYABNgAkyACWgeAWdnRwweMkyuYJs3b5YbH0FSCL5+/Yphw4ZBeECKnWrWqo2CBQvEzuZjJsAEmAATYAJMQIMJtCHHgqVKWclI+PHjR2mWIPYJSSEQ2sK9e/din5OOhTMDRd0eym2AM5kAE2ACTIAJMAG1EzAyyoruPXvJ7XfGjBl4+PBhjHNphEfCdevWxciMPBg7bjzyxbNnMbIc/2cCTIAJMAEmwAQ0i4AIJdC0SWPyOmwnI5iIYLxr164Y+WlEJMNr167FyBQH+fLlR8sWLWTyOYMJMAEmwASYABPQDgLCP4F3P2+5wh47dixGfpoLFy5AKAWxU5kyZWCULVvsbD5mAkyACTABJsAEtIhAuXLlYWYm66Hw0qVLMcIop1m6dKncYbm7N4WeEnGU5TbCmUyACTABJsAEmECKEjCm3YLVqlWTkeHNmzc4dOhQVP5f5MTgd1hYWFSGeJM5c2YKbHQfwiBBE9IX2gXx9MlTvHwZiBs3buDNu3f4EhKCz8HBmiAey5AKCKRLmw55jPMgEzn9MDMzQ4kSJZC/QAGYko8ONrpN2Q/A58/BeEqR3p4/e0ZGUg8Q9OYtgikv5EtIygrGvWscARE6ODeFDM6YMaP039raGmZ58yF/vrzQ09PTOHmTU6C9+w7Ao3kTmSbd3d2jHBL+RWd/xy7R3KMlli1dEjtb7cePHj3GggULsGLFMrlbItUuEHfIBGIRsLGxRTcKKNK4UQMID2Gc1Efg2vUb8NmwAQvIfzsnJpAUAgULFkKHjp3RpnUrZM+uu0vlhoayjooEt9+//6gBchWCqdNnomvnTknhm+i6b+npf8eOHdi3dx+FdDwBsQuCExPQdAKFCpmjmqsrmjRpinIOZSFChHNKfgKBgS9pivMgtm/fjhMnjid/B9xiqiYgHPE5ObtQLICmcHGpAn09fZ3i4enZCrt375QZk4iCWLx4ccgoBGKbwtmz52BlJevMQKaVZMwQP/wnTp5Gp47tycjxXTK2zE0xAfUSaNKkGWbNmglDQ0OIKUpOSSMgnl6E07Q99JAwbMhgvHgRkLQGuTYTUIBAKStrrF+3HgXIMV9aHbmP/xk1GjOmT5UZvdht4OLiEjPaoSiVK1dush0wkqmgyoy79+6jdZvW8GzZnJUBVYLmttVCYOvWzXBycsQiChbGKekE7t1/gG7duqFta09WBpKOk1tQkMDNG9fhVrcOhg8bjpCQLwrW0uxiRYsUlitgYGCglC8zrykMCtW1FhoR8RO+fhfRzqudZDAoV9JYmcLwQxiEpCUjr/R66WOd5UMmoBoCvyg0uPi8RkT8oC+HhI3VHj9+jEEDB+A6rXNPGD+O1iWzq0YwHW5VhGM/eOgwmjeTNYSKa9jiu0GPpnnTpE3zZ5cUzXhyYgKRBH7/+iXNNv2gGSdhmB65dh55Pvb/FwEBmEc2Kvcf3MfcuXNgYmwiN6xw7Hqaeiy+h8QqQOxxB//fQF9GIRA3kjqmOcWX64oVKzBhwniFZgXq1KkL+7L2sKalDBMTU2QixcUoq2bsgtDUi89yJR+BsO9h+Prlq6QM3Lx5A7fv3MXRI4cpIJh8l9+RPfusX4tAmuJevnwFcufOFZnN/xMgIJYQ55NB8ayZMxMoCWSl7wFHJ2dUKF8eNjY2yEZfemLtV8x0quO7LEEBuYDGEBCKgFDohTLwgH7kb92+jbNnzsLX90K8Mh46eADNmjYj5WA+fcZKx1tWk08aGxtLD9ShoaExxHz79q10LKMQxCilogNxs2/esgXDhw/Ft2/f5PYibmQTU1O4N26CHj17SNu75BbkTCagZgL29mWkHsPDx+AUfZlMnTwJV69eQeybTBQSmrgwfqtfvx42btwEDhSW8MUSMwOLFi3CiOHyI7VFtpCX3Kq39WqP1mQZbkbfFZyYgCIETGj7sEh2drZRxS/5X8ZEejj19fXFp08fo/Kjv7l27SoaNWpIv11bYV/GTitnCoSxc3xKstotnn7RlI1YW+3dq1ecyoC4CGPHT8DxY8cxnqZbxV5vTkxA0wiI5SvXqi7YvWcPdu3ejarVXOMU8datW2hDdjKvgoLiLMMn/hCYOHESxo0bGycOMe05ddp0HD9xEgMH9GdlIE5SfEJRAuIHftu2bdi3fz86dOoSZ7V3795KWxPFllddTGpXCPwv+2P+vLnkLvG7XJ4VKlbCaXrq6t2zJy0NsCIgFxJnahQBfVIMypNr0PXr12Ps2PFxuPz+jStXLmPEiBGIXK/TqEFoiDC7d+/B5MkT5c62CAdQlSpVhnCw0rVLFwjva/E97WjIkFgMLSJgVaoUZkybiiVLl8E0jlknsculn3dfMnB9oUUjU0xUtSoEDx4+on3aTRBp0RhbxI6kmW3auBGlyXsUJyagbQQMyK6lV6+e8PHZEKdh7tYtm7Fg4SJtG5pa5H32PABDhw6Js6/u5ABqAzkiKmVZMs4yfIIJJJWAUDKbN2uGffv2w8KiuNzmfH0vYsDAgTrnJ0etCsH8+fPwQU4gJUG8WTMPjB41CtkooJKwguTEBLSRgHiKdaxcGQcOHZFsYGKPQayPz50zG1euXo19KlUff/0aKi0jPiMXxLGTWPfs29dbMkAW3w+cmICqCQiloHDhwthAdj8lSlrK7e4wxQA4dPiw3HPamqk2heDw0eNYu2a1XE6tWrfF/PnzkSWLodzznMkEtI1AGVsbrFy5Sq7YwcGf4e3tjQ8f5Rsvya2k45kHDx0g48uYoVgjh9yufUcyQB4eecj/mYDaCIh9+8K2oJC5uUyf32nnUYf27fD06TOZc9qaoRaFQGzzGDp4YIwwi5HARFhGYU2cIYNuuYiMHB//T70EKlWsSAa0SySPhbEp3L51ExcvXoydnSqPxU6j6dNnQBgcx04uLlUlPw66Hngm9rj5WHMI5KPdLGK7oTxfIl8p8N7q1as0R9gkSqIWheDkyZMUPfGOXFHFXmM2HpSLhjN1gIBYi6xVq7bMSMQWxalTpsjkp8aMNWvX4Tpt6YqdhIO0UaPHxGmPEbs8HzMBVREQy4ADB8u3b9lCdkG6ktSiEKxb7yPDS9gJ9PXuB4tixdhmQIYOZ+gKAbH+PWjQYAopLhtlzM/Plyzm9+vKUBM1js+fP2PpksVy63p794cdLb1wYgIpTUD8XnmQcl9Sjj3BMwq7vWr1mpQWMVn6V7lC8PLVK+z9d7eMsEZkHNSKIi9xYgK6TsDCohj69usvd5jixzCcHHWl1vTo0SMEBDyXGb4IKz2EAhlxYgKaQiBHjhw0SzBUrji9enZHMC2Na3tSuUKwZcs2uYzq129AVpzmcs9xJhPQNQKeLVsgb958MsMSe5k/pmLjwmPHj8v1OVCjRk0ZVpzBBFKaQD232ihjX1auGDd0wFmRShWC79+/Y8rkCTLwxJaOfv36UYCitDLnOIMJ6CKBPLlzo0yZPy6Po4/v3r27kk/16Hmp6b0Iuyov1a1XT1425zGBFCUgjFs9PT3lynD8uPzPstzCGpqpUoXg1asgctwQITN0sbOgUMGCMvmcwQR0lUD69OkplKr8H7mLF/10ddjxjutV0GucPnVSpkyRIkVhWbKETD5nMAFNIFCegmgZGMhukb//4IEmiJckGVSsELySwsXGltC6tPZGi4o9Fj5mAooSsC9jL7eoCKiSGlNczplatPSkEMZ6qREJj1kLCJhStN3MmTPJSBrw/LlMnrZlqFghCJRiT0eHIpYLbFghiI6E36cSAoUKFUChQoVkRnvxwnmZvNSQ8fTJE7nDdK5SRW4+ZzIBTSCQLZsR7TYoKSOKCKes7UmlCsHzgBdS+NfokMQ2rPz5C0TP4vdMIFUQEJ99OzmzBO/fv8O7d+9SBYPogwwKehX9MOp9ubLyZ1KiCvAbJpCCBMRDbVmH8jISiC207+he1uakUoUg5MsXGTYCphFpWJyYQGokkC+ffGU4WM69out8zpw+JTPEvPlkd2LIFOIMJpDCBPIXkH8fPw8ITGHJkta9ShUCuaKRg4e//lJ/t3Jl4UwmoGYCadPxzppI5GFhYZFvo/5nMcwS9Z7fMAFNJaCnp5uu9vmXWVM/cSwXE2ACTIAJMAE1EmCFQI2wuSsmwASYABNgAppKgBUCTb0yLBcTYAJMgAkwATUSYIVAjbC5KybABJgAE2ACmkqAFQJNvTIsFxNgAkyACTABNRJghUCNsLkrJsAEmAATYAKaSoAVAk29MiwXE2ACTIAJMAE1EmCFQI2wuSsmwASYABNgAppKgBUCTb0yLBcTYAJMgAkwATUSYIVAjbC5KybABJgAE2ACmkqAFQJNvTIsFxNgAkyACTABNRJghUCNsLkrJsAEmAATYAKaSoAVAk29MiwXE2ACTIAJMAE1EmCFQI2wuSsmwASYABNgAppKgBUCTb0yLBcTYAJMgAkwATUSYIVAjbC5KybABJgAE2ACmkqAFQJNvTIsFxNgAkyACTABNRJghUCNsLkrJsAEmAATYAKaSoAVAk29MiyX1hPYtXsPAl++UnocPyJ+4MTJkzh+4pTSdbkCE2ACyUtg34GDuHv3ntKNRvyMwM1bt3DilPbcx6wQKH2ZuQITUIyAn99FODs5YvWatYpVoFLPnwegV89e8O7bF+XLOyhcjwsyASagGgKZMurD1bUqpk6dhm/fvinUiSjXq1cfNG7UEAaZMilURxMKsUKgCVeBZdBJAs2aNsfr10Ho2aMbPFq0oCf+E/j165fcsb5/9x7TZ8xA3XpuWL9+HRwcHJAxQwa5ZTmTCTAB9RGwsrJGrly5MWbMKLo/62HT5s0I//5drgDh4eFY77MBddzcsG7tamTMmBFFihaVW1YTM9NpolAsExPQBQKlSlmiVq06OHBgH/b+uweHDh6AmVleuUNr2aI5goKCos41a9Y86j2/YQJMIOUIZM+WDdWrV8fDhw/ge/ECLvn5olAhc7kCde7Ynmb5nuPnz5/S+c5duiFrlixyy2piJs8QaOJVYZl0gkCaNGnQq09vpE+vJ43nx48fePr0idyxRVcGTE3NUKaMndxynMkEmIB6Cfz111/o2KkzMv1/6l/M8j169FCuEE+ePIlSBoyNTeDh0RyivrYkVgi05UqxnFpJwMHeHqVLl1ZK9lFjxiFr1qxK1eHCTIAJqI5AsaJF0LBhY6U6aNHSEzmyZ1eqTkoXZoUgpa8A96/TBPT19eFG64mKpkKFCqFmDVdFi3M5JsAE1ESgOT3ti/tZkSRsB2rVqqlIUY0qwwqBRl0OFkbXCIjpwjpudRWeNqxU2VGr1hx17XrxeJhAXATETJ9YzlMk5cmTB3a2tooU1agyrBBo1OVgYXSRQMkSxWmWoJ5CQxPGhGnTplWoLBdiAkxAfQTE9L+7exOFOuw/YDAyaOEuIVYIFLq8XIgJJI3AgIEDyLgwfbyNFCtmAZcqzvGW4ZNMgAmkHIEePXsk+EMvjAnbtmmVckImoWdWCJIAj6syAUUJFKO9yGXsy8ZbfNiw4fGe55NMgAmkLIGcOXKguUfLeIVo0LBhvOc1+SQrBJp8dVg2nSFgYGCAJk3inm4sXqIkXFyq6Mx4eSBMQFcJeHm1JYdD8r0PCqPDZs2aae3QWSHQ2kvHgmsbgZo147Y6LkeeCQ21yIGJtrFneZlAchEoUrgwbQuW72zIxsYWVqVKJVdXam+HFQK1I+cOUyuBggUKoM/f3nKH79WuPdKxMaFcNpzJBDSJgJGREfoPGCRXpN5/95XcFcs9qQWZrBBowUViEXWHQJMm7jJOh1yqVkNpayvdGSSPhAnoOAHhgTB//vwxRlm8eAnUrK7dPkRYIYhxSfmACaiWQGGabhRfHJFJT08PHTp0THAHQmR5/s8EmEDKExDxCRo2co8hSO06dRR2XBSjogYdsEKgQReDRdF9AgaZM6NV69ZRAy1cuAgqVigfdcxvmAAT0A4CDRvUh1DoI1ODBtq7uyByDKwQRJLg/0xADQSE58LatWtDeDITydnZGTloKxMnJsAEtItA8RIlkO//ywYiRLK1lfYaE0aSZ4UgkgT/ZwJqIpAnd254te8o9dahYyeIqIicmAAT0C4ChrSVeNDgoZLQ02bM1Illv3TadQlYWiagWQQ+fPyIL1++4PPnYKUEK1qkCOrUqQsREvnGzVtK1RWFhVtUI6OsELHa2dWx0vhUWiHo9Ru8fftWpX3ocuMiWnCWLFnpZQgjFUf9DAsLw+fgYLx//yEqbLEybMV9XLNmbQjlQNn7OGfOHMhMS4hZDA2V6VKlZVkhUCle5Rq/efsOjhw5gsePHuH379/KVebSMQiIG61sWQe4N07+db1w+hE/cfIUZs+cgVOnTsboV9mDffv+VbZKjPImJqbo690PkrMULfSdHmMwWnwQHBKMpctWYNRI9jaZnJdRKM3devRAFSfH5GwWzwNeYMWKFZg+bUqytHvw4P5Et+PVrgM6deqkEUsOrBAk+jImT8UPHz9g+bLl2L1nD65fu4Zfv34mT8PcikSAnIqhQcNGZMnfAZUqVYJeAvEE4sMWHh6OzVu2YPHiRbh65Up8RdV27tWrlxg4oB/mzJ6J5s1boHef3tKsgdoESOUdBbx4gdmzZ2HZ0qWJesJM5fgSHL5QmA8c2I9y5crD27svXF1dkS5d4n+2rl2/gTlzZmPP7t349i00wf7VUWDVyuXY4LMe1Vyro1PHjjTGauroVm4fvHgpF4vqM8UMwLUbN+BAT7FjxoymH5jLrAyoCPuunTvQoH49jBz5D75/D1e6F3GtxBNgj5690K1rF41RBqIP5AX9ME2fPpV2LFTAjRs3o5/i9yoicO36dZQv54DFixaxMqAixqJZ8ZB0/vxZNG3aBDNmzUZERITSvf369QtHjh5H5UoVsHnTRo1RBiIH8v17GPbt3YNGjRpg/oKU+zyxQhB5RdT8/+y582hMQTBevw5Sc8+pszvxoz5/3hx4tvLEmzdvlIIg1vm9aVp+44b1StVLicKBgS/QooUHTYkGpET3qabP8xcuwKttGwTT+jMn9REYO/ofjBo9BmK2Tpm0d99+tGvXRpkqKVZ25IihmDdvfor0zwqBmrFLMwM0bVW7Vg36YXqt5t65u4M0/Thh4iT8UPAp4+fPn5g4eQo2bdygNfCePXuKGtWrk6HjZ62RWZsEDaD157akDDx8+FCbxNYZWWfPmoG9+/YpPJ679+6hZYvm+EQGwNqQhLIzfPhQHD5yTO22ZIlfjNEGshooo3ja/GfkCA2ULPWItHzZElQoX57W3BOOSuZ/+TKmTZkULxwbm9IwMDSIt4wqTp45fTbOZsVMweIlS8i+YECcZfhE4gisXrMar4PintnLlCkTStvFH+o6cT2nnlqvXwWScXXcClc/siewtrZGYXPzeKGIHUAjRsT/fSv8gJQoWTzedlRx8sH9hzRDHPdD4ZDBA2FJtg6mpqaq6F5um6wQyMWiusxL/v44evSI3A6ykDvMimWt4NmsAayL5ZVbhjMTJhD8NQzX7wZg6pzFePr8pdwKo0b9gypVqpCDoNxyz0dmLiVjMXlJGDZVqGiHCRN6o7RNPnlFVJ73+nUIFi7YQwZtPjR1HSLT3+ZNm9D37791Yn+0zOBSKOPJ06eYPGmi3N4NDLOgQy9v1GjVAYbZc8otw5mKE7h38Qzmjh6C65cvyVQS2zp91q+nJ+nhEM6+4kp37tzB8WPH5J7OkTM7LT/0gaenExkqpsxk+b69VzGg/2QEBMh+T927dxeHDh+ipSkvufKrIpMVAlVQjafNkXFoq7loT+qa2cPhUr4E9NOnjacFPqUIgcrW+dCoainMWn0AU2bL/qgL240bN2+QQhC/Re/ZM2fkdtembSOMHtOBAhVllHteHZl58hhi+AgPlLIqgO5dx0DsqY6exBfK6bPnULWKc/Rsfp8EAps3b46z9rCZC1GpbuM4z/MJ5QhYlKuMMSs2YUa/bjh19JBM5YMHD2IAzYAJnxxxpY2bNpMhccz7QpQtUCAfVqwchbIOReKqqpb8Om429ECxEG1a/wM/36syfe79d59aFYKUUYtkhp06Mm7fuYuLFy/IHey0UX1Ry7EUKwNy6SQu0yRnFkzu1wxuNarINCCWbg4fOSqTHz3jOPkaCAh4Hj1Lel+ggBkGD2mdospApFDiyaZRowqoWcslMivG/9WrVsY45oPEE/j+/Tv2x7F27T1iLCsDiUcbZ83sxqboM2UecuUxlilzj2wDQmhJIK4k7vGtW+QrcAMHtU9xZSBSbjMzI5qp6Bp5GOP/gQP7ILamqyuxQqAu0tTPI3I4JC9Vr1oFHnXs5Z3ivGQg4NW8ttxWLvv7yc2PzHz4UP71atioFs0sZIksluL/06ZNg379POXKcfTIYbn5nKk8ga+hodL209g1c9OPlatn+9jZfJxMBLLnMYFx/kIyrYWFfcP9+w9k8iMzXtH6/IcP7yMPY/xv1LhSjOOUPnBwKAphiyQv3b59V162SvJYIVAJVvmNfvkiu84rSlatbAu9dLxMIJ9a0nOd7OUbDF04fz7exq9fk53CExXK2JeKd90y3kZVdNLGVr4dQwTtkhCudDklncBv2ssu9rPHTsZm+aCfMXPsbD5OJgJpyV6nVj35HkfDf8S9/TAufwX1G9SDgYF+MkmXPM3o66dD+QryHwo/fVLfbiFWCJLneirUyp3b8n3WZzGIew1MoYa5ULwEcmfLFO95PskEkkIgTVpS5uO2a0tK01w3FREoUEB2WUTdw2eFQI3ExRokJybABJgAE2ACmkiAFQJNvCosExNgAkyACTABNRNghUDNwLk7JsAEmAATYAKaSIAVAk28KiwTE2ACTIAJMAE1E2CFQM3AuTsmwASYABNgAppIgBUCTbwqLBMTYAJMgAkwATUTYIVAzcC5OybABJgAE2ACmkiAFQJNvCosExNgAkyACTABNRNghUDNwLk7JsAEmAATYAKaSIAVAk28KiwTE2ACTIAJMAE1E2CFQM3AuTsmwASYABNgAppIgBUCTbwqLBMTYAJMgAkwATUTYIVAzcC5OybABJgAE2ACmkiAFYJ4rsr7Dx/khjuNpwqfYgJMgAkwASaglQRYIYjnsp08dQbt2rWD3yX/eErxKSbABJgAE2AC2k+AFYJ4rmHjhvXx8eNHVHVxRsOGjbBu/To8fvwknhp8KjUTuHcvAFeuPMGXLxzmOjV/Dnjs2kvg3LlbuHv3JcLCfmjvIJIgOSsECcDr6+0tlTh69DC6de0K5ypOpBw0xMlTpxOoyadTG4FLfjfhVrsHGtQbhK1b/FgxSG0fAB6v1hPYtfMYXKt2hkez0di//0aqUwzSaf0VVPEAHCtXRr16DbBnzy6pp080Y3D06BHp5ejojOo1qqN2rdooXNgc6dOnV7E03LwmEzAyyorv38Ph53cFfu2uSJ+JBo2qkgLpCAsLM2TMyJ8PTb5+LBsTMDbJg+DgEBw7dlp62dhaw82NfgPqV4K5eR5kyKDb9zDPECRwD6RLlw6rVq1EsWIWMiVPnz6JkSOGw9GxEurXr4djJ07ix4/UOdUkAycVZtSsVR43b21Bv/49SDlMh0ePHmPGtGWoXq0TbG1aYevWS6mQCg+ZCWgPgZ493XH9xhZ07dZOEvrqlesYP24Bqji1h1PlrjRrcEt7BpMISVkhiAdaeHg47j94gBMnTiArPf3FlcLCwnDmzBmaKnZDtWrVMHnyFHpKvERPi7yWHBczXcxPly4NTEyz4Z9RzXD3/i4sWjwaNWo4wcDAAC8Dg9Deqx+cHHtj2NCluHz5aaqbjtTFa85j0i0C6dOnRcFCuTFlqhfu3NuFaTMGoWq1ykibNi3ZFjxE86bdaUnBG2NGr8L16891bhcaKwRxfJ7Xrd8AExNjlLGzhbt7Y/j5+sZRMmb2lSuXMW7cGFStWgVOTk7YtuPPUkPMUnyk6wRy5TJAS88q2Lp9LK5c88H0GaNgZmaGq1euYe6cdfTE0RZ16wzFwYM3ER7+U9dx8PiYgNYRMDMzQufOdbBz13hcv7kFY8cNhqGhIXx9/TFt6kpUrtga7o3G4eTJe1o3trgEZhuC/5P59esX7ty9hw0bfLDBxwdv3ryOi5nC+bdv34JXG0+ML1YMVaq44PmzpwrX5YK6Q8DIKCM6dXaBv/8F+KwPRPkKdnj/Ppi+WHzR1N0XVtalUL26A61TOsHSMq/Or1PqzpXlkaQWAkLB7/N3bWzetBU3boSgZq0quHvnMdmSHZVe5Ss40ENgGdSt50jLy3mgp6edP62pfobg9+/f+PbtG8aMHQ/HyhUxe9bMZFEGIm8UMdX09ctXmJqawdjYJDKb/6diAr17N8a584uxZt1M+vIogvv3HmDG9BVwcfaCa7W/sXPnZfpMhtN05O9UTImHzgQ0l8C06V1x0W855i+cgEKFCuDK5auYMH4hKpZviQb1h+PI4dvSkqC23cPaqcYk4+fk8JGjGDd2DO0fv5yMrf5pqk6dumjevBkq0U6FPLlzY9CggcneBzeonQT09dPR7gM71Ky5ELduBWLb1sM4feo6rl+7gTat+sLG1grWVgXRtp07ypYtpJ2DZKmZgA4TyJRJD61bV6L7uAxu3gzAtm1HcPyoP86eOY8L531hb2+Dsg4W8GjhBmvrvFpBItUqBMJgcP6CBdIuAUWu1F9//QUxmxBfSpMmDbJmzQrX6jUwbNgwFDY3j684n2MCtBVRj744CtGrs0Rj795rZHQ4lRxgPSV7gxtYs2YPGapWRcdOdUmxLEFrmBnIwCnVT+zxJ4cJaAwBcU9WqFBUev38+Qs7dvhjxLApuH37Hi5e9Me8uT6kNNRDuw61UKZMYTIyzoA0af7SGPmjC5IqFYLPwcH0gz2U1oM2RWch972lZSm4ulbHiZPHce3qVbllRKaVlTWaNWuOWrVqoUiRwhDbFTkxAWUJuLmVpp0Jq+nL5AX5vjiDgwcu0BrlMellZW2JGTN6oFx5S2Wb5fJMgAmogYBQ1ps0KUu+C3zoHn6OnTtOY9/e07QMuEd62dpZY8uWMcidJ5sapFG+i1T3qxUa+g39+/fHRjIejCtlypSJpnhKY+DgIbSHvCoePX6E5cuXyRQXswHFS5RAjx494VanDhmS6MmU4QwmoCwBsfWpdOkC0qtLlwbw8TkpPXHcuH4Lb99+ULY5Ls8EmICaCQgnZGI2wNbWHN17NMKsmduwcMFqsjW4jm+0TV1TU6pSCITToGnTppFb2c1xXo/8+Qtgzpw5KGNvDyP6wRcXr2mTpuSGNiSqToYMGWjtqC08PVuSBzoLaZ951El+wwSSgcDTp++x998LZFuwH3fImpkTE2AC2kNAGBPev/+alg9OYv/ek+TDQDvu4VSlEGzYuBFTp06W+6nS19dH27btMHjwYOTKlTOqzL59+/DgwX3aCpaBrEnN0aBBA3Tr1g3Zs2ePKsNvmEBSCYi1xw8fvuLatUe0VOCLbVv2kAvVYKnZfPnMyH12NXi2rovy5QsntSuuzwSYgAoIRET8wru3wbS9+AEpAmexe9cB2mnwTeqpYMH8tLW4Mpq3qIG8efOooPfkaTLVKATPnwdg+PBhcVIb8c9odO7YgYy8MsYos3z5crILqIM2bdrQ2m055MyRgwxC2KgrBqQEDp68/Ignrz4lUCppp8uWMIVhJv2kNZICtcWXyPXrL7Bp40HynX4eAc9fITQ0VJLEwcEBrVpXRxUXW3KSlQ1iZwInJsAENIvAjx8/yafIU2z02YuzZy8jIOBllJdaF4qU26p1NfI9Ukq6h4U3U01OqeIbRjxpie1/Hz/Irr+KJ//Zc+ahZQsPmet0+/ZdjBw5EuXLlZM5xxmKE1i9aQ9Gz1yreIVElLyyfyFsLIskoqb6qwjPhI8evcapk9ewe/dZnDxxFhERf2JgFC5SCJUq2ZKXQzdUrKgd41E/Qe6RCaQsge/fI2hJ4CUOHbxERoPnyHX9eUkgsRutaFFzVHOtgOYeNWFnlz9lBVWy91ShEGzfvp32id6Qi6Zv335kI+Au91zJksXl5nMmE0gKgWFD5+MneSt++/Y9/f/jttjRsSLata+Lyo6WyJkzC+1S0ewniaSMn+syAW0n0LzpEISEhJETu7dRQ6lZqxq82tWhLcRF6R421MrtwTqvEIjp14ULF0ZdtMg3QpNr3aYthg4dEpnF/1VEoGOrhqhds1qytP6RbsIb957h0NFzOHL8ZLK0qcpGxJPEw4dB9CRxHhcv3JW6Cgx8IwVLsbAoAkcnGzR2r0kWyQVpl0paVYrCbTMBJpAIAqGh4XhAswEH6R5+8eKd1MKjRwFSuHtbOys4O5dBo8auKFXKlPK0+x7WeYVg9Zq1tB9UNmSlkZERvPt6J+LjwVWUJZA3VxaIV1LS64+h2LDfDwuXrUfgq9f4+vXPOrtwBz2wtxfMC2qeJ7B9+65j7uy15InwLj59+mMgKBhUq+6CLl0aoly5osiSJaNWPkkk5VpyXSagDQTCwyNoSe8KFi3woV0CD8jI97+dZs083GmXWTVS5M1pl5m+ztiV6bRC8OnTJ9pCOEvuZ28kGREWLmwu9xxnagaBl+++wPfafWzdfxaHjp+jKfY/2rllyRKwK1kQrZvROruNOTJnSK8RAn/9+l1yKLRzxzGcO3uLrI2vRMlV1sFOCmDkVtcRxYubaP2TRNTA+A0T0CECnz6F4uaN57RL4BgZCF7H7Vt3okZXoWJZ2u3jSJ5oHaQARrpoXK7TCsHNmzfxOigo6oJGvnFwKIeOHdpHHvJ/DSPw/E0wFvgcw+QZ82NIZkehqCcM6YKa5QrHyNeUA6EIdOs6KYY4nq080KVrXdjY5IuRzwdMgAloHoGJE5aTA6GtMQTr0LENevdpQNvO/9uOHqOADh3otEJwhEJTCmdE0ZPQ6urXbxA9i99rAIE7T9/i2Nkr2HPUl2wDzkQZ21VwKIOqFSzRqE5VlClhpgGSJixCZcfy5H7YATVqVkDJkqYJV+ASTIAJaAwB8RvhUrUSbTcvT7sFHMgVfW6NkU3Vgui0QuDv7y/DT7gXdq5SRSafM9RLQHjy+v4jAn63A7Bg3QFs2rJDEkDcjBn09VDPrR7+7tAI5S215wfVrow1zpzzIbfX2qG4qPeKc29MQPMJuNWtjs5dWtBysu7PBsi7GjqrEASHhFAIynMyYy5evASKWxSTyecM9RD4QY54/Chwz459J3Dy4g34+f8JGGVgYICqThVQ07E0qla2Q5G8OZBOy6L6lZAzg/HhQ6hkVxAQEISnFMHw0+fP5KksL8zMTGCWNxdZJudD5swcA0M9nz7uhQnET8DJSXar+Zs3IWRUGEg7DF7j3t375H0wTApglzt3TpiaiXs4Lzm00ww7pvhHl/BZnVUIrl27Ll242AjcKS6BcEbESX0EfkT8xOcv33Dkwj0s23AQR48flzoX16EAueVt5dEYXo0cSQnQzAhgypISbog/ffpKkQl30S6DpfFWNzMzpeAnbdDWy5lCG2eE2A7LiQkwgZQlIDyIvnz5AdOnbcfKFevjFaaYRVF06+5Jzu8qSKGN4y2s4Sd1ViG4e/eeXPS2dnZy8zlTdQQ27D6FiQu34O69B1InefOaoW4NJ7hVsYNdqcIwzm6gsfHBE0Nl7dojmD3Th7wRPpGq58+fD2I5IUeOLNIWw3BaKgl69QFnz1xAYOBLDBs6Cfv2kRHllN603MDGh4lhznWYQHIREAr99GkbsXrVvzQrECg1W7yEBdkDFUP2HIZIQ0r79+8/SGF4h2NHT+I+fa/17TOKgpE5YuasfihQQHsfbHRWIXjxIkDu58O+jK3cfG3M/BQSioCgTzDPl0tjtt7J4/j4WUCUMlDKsiTmje2JMpYFYJBRt6bKf/36hUOHbqB3z/ESBucqFdGrtydcXErI3WYYFvaDYhicw/x5a0k58EXliq1w+uwaUgry80yBvA8S5zEBFRMQysDGDWcwftxiyXlYvfo1yabAHZUrF5XrL0Q4LVqz5gRmzliOI4dPo1xZP7qHV5P7YmMVS6qa5lOdf9TMmTKrhmQKtPr0+UvU8ByI5j0mYeeJm/hM++A1MZW1K43S1laSaDdv3YZ7p+Fo0HE0lm47jSBaY9eV9OjRG3j//WfbYbfubbBq9TDabVBKrjIgxpyB/Ce0buOE7Tun0o4EZwnDpIlraGfMH3fGusKFx8EEtIXApUuP0b/fn3t4yLAeWLTYmzwRWshVBsSYMmXSQ+fO1XHg4DwKYGRHgcnCMHvWFm0ZroycqU4hkCGgxRnp0+vh86fP2Hv4FBq16QvLap0wdtEe3H/6Gt9oSktTkptzafjvmoZ9G+ejMVnxZiTbgWOnfdG57xiUqtoO3lM24sL1x/j0JUxTRE6UHDu2H6cpxpfkxrQ2xo1vS0sEBgm2kybNX2RkmA0zZvYhQ6VCNO14RDJgSrAiF2ACTCDZCSxbslWKNtqLvJ8OHOhOdj0J25uJe7hQoVyYO28ghAfcNau3UsTDj8kumzoaZIVAHZRV1EeRgqbYv24yurRvRcYsmRH48hVGTpiDKs37oUqz/th2VH5AJxWJE2+zaWnHQO2KxeAzux+Ob5qG2RMHwtamNN5TBMqZ85ajdquBcGneH/M3niTFQDNnOuIdIJ28evWpVKR9hwY0K6Dcalz+/DloecFLqr99u6/0n/8wASagXgKPn7ymMON68GxVXemOLSxM0KNnO6nev//KbnlXusEUqMAKQQpAT64u9fXSwdmhJBaNaot7p9dj0fQRqFjOFuHhP+B75TaatPNGmQYDMHbBDtx6FIRQWrNO6aRPwT+K5M+F3p7VcW7rZOzfNB/NGtZAdqOsuH7rAXoOHIcSVTuh17g1OH/lAd5//pbSIivc/797DkhlK1RI3LbWFi0rSfVnTJuncJ9ckAkwgeQj4Od7mYKMpSPXxInzfyJ2C4k0f+7S5BNKjS0p9xijRsG4K+UImObIjM5NHOFR2wHPyPp157FrWOWzE5evXJVe85ZvRlnbUujWrilcyhRCJg3w/5+BovvVoh9PF3tvvP0QjH9PXscyn73wv3wF85asxeoNO5EnpxF6dfFCkxq2MKWQotqQEhu1UNgUcGICTCBlCYitv4kNP54hg3b/pGq39Cn7udG43sUHOatBBlgXyyu9sqT/jr6jF0p7/dPp6WPvoRPSy4os/RvXcULDGuVhUTAPMuqn7MdAzBrkzZMNXZs5w6thJVy6HYgVPrvhe/0+bt2+iz6Dx2LSbGPUI8O7Os62KG9bHHmya55xaM6cOfDu3XuaoYmQnjKU/YB8+/ZnBsfExETZqlyeCTCBZCCQJYshfv/+hQjynZIunfKhjCPv4TzGeZJBGvU3wUsG6meu9h49Gzjj3LZpWDprFPLly4cbZOk/ZtpiuDTpTfYGA7Hr1F21yxRXhxlouq6yTQEsmdADpzZNxvrFE1GpUkW8ehWEJas2oXnXf+BQtztGLdiNtxSZTJNSdfKtINKdO68SJdaJE3+uQ4+ebRNVnysxASaQNAI2NIsqHKm9eJE4o8Ajh29LAnTs1CJpgqRQ7ZR9NEyhQae2btPTE3ju7Ibo2LgS2tQvj7Nk/LaClhOu3HoC38s30LBVL9o/WwbO5Uqieb2qsC5qmugps+RiK6bssmfNhJa17dG8ZhnahfAMKzfuonDIj0ihuYPRk+Zi5oJVqFnNEY0piFD9qna0DJKyfg2qV7fD1i3/0usIuTNtG+dWJXmMPn8OJa+G62hnQnbagmgjrwjn6SCBe1cv4cTOzSodWQ2PtihU3FKlfehK405OpXHm9EUcPuSHTp1rKzWsd+9CMGvmKhibGNNWxZJK1dWUwqwQaMqVUJMcejQN5mJfGE62ffGdpraF/4KBo2fhop+/9JqzbDOqVXGCd+emqGJXUCM8CKalbT2VbAqignVvhJHB5L6z9zB0/Dw8ePgYW3bsw449h3Bp73yULmGuJoryu6lazZ5+0LNKjoZq1KwER0fFjQsX03bRs2cvomnTmuTURDunG+VT4dz4CDy+dwfrF82Nr0iSz5UsV5kVAgUptmpdB+PGLsLgQdNRsZItLC2NFawJTJywFg8ePKBQya1happV4XqaVJAVAk26GmqURWwDzESeAlvWtkMT15W4eOMZtu07iRPnr2P/oaPYe+AwHOztMKhLI3oCL58kyZZsPIQlGw8nqY3YlTNmzBSVFRERgd/kJTClU/bsmbD733nwajsSbrU7YczYPmju4QoTkyxxinaXlhdWrNhN/tK3oX6D6pgwqadSMwtxNswntIKAWf6CqNWwicKy+p45iQ/v3qKiiyuyZDWKt96Ny34IfP4s3jJ8MiYB8UN+5NgKeLUZBteqXpgwsR/c6lZA7txx+xS5fj0A8+Zuxq6dhykmiTu8+2nncoEgwQpBzM9DqjzSoyUFRztz6RVOXvL2X3yIhi17wvfSZVx3tEyyQvCS1v/9L/+JaqjrgIsXN8GWrVMwZNByjBwxG2PHLEDvv7vC3r44bWXKI3k2ExEQ7959iXPnrmH50tUSkukzR5NXw9LkpfAXxTf4HCcmoXToSmS1OAeZik5YV3CEeCmaejeuISkEHYaNQ9FSpeOtNqFPJ1YI4iUk/6SDQ2Fs2zELA/svQJ/e4/DPyKzo1aczrKzMUby4seR5VERAvHfvJU4cvwSf9ZukhhYunoQqVUri27eIeO/hPHkMU3xJVv7IWSGIi0uqy3/zMRQnLt7Ghl2Hcc43eR0aeTRwhY2VatcwC+VP3L7h5LzQu3aexvBhMfcf//jxA9OnJjwl3K/vPwqJ4rNhHOrWU/wHRKFGuRATYAISgcmT1mPd2oPSezHzKNIn8gY7dvRU6X18f7p1GRzf6ahzN25tpABImrmTiGcIoi5T6nrz+/dvRFAgjzcfvmDt3kuYvXA1goL+WMfr6aWHJUX36tud9v+7WiUZTHFzU4iXrqew72F49/5t1DAzG/y3rBGVmcQ3idkKlcQuuToTSDUEvn79ovJ7OE0azd3cxwpBqvmo/xnoL1IEHr74gAMnLmPXgZO4fuehtHdenC1apAgakDGc8E9gWTQvjMinASfFCTRoUAXVqlVUvEIiShoa6ieiFldhAkxAEQKDBnuRUWArRYomuky2bBkTXVfVFVkhUDVhDWj/16/fCKZIiLcevsSqnWfgs2k7vnz5IklmaGAAe1tr9O7SCu5VS2mEB0MNQJYoEYSnQfY2mCh0XIkJaASBzJn1IV6pNbFCkAquvM/O49h11B8PHj0lg5c/sQEsihVDy8auaFCtLArnzw0D2nGgjvQw8BMu33qKZwFBFJExTKkuR3ZvqFR5LswEmAATYAKKE2CFQHFWWlHyJ80GfPj8FZdvP8H+M7ckmR89C6T/gciWzQilLAqhT7e2aOhijcxq9Lsd9D4EExbtwtzFf6zqEwNTGxUC4cY4OPibFCf969evtIvgB+0SEDsFMtBLH1nJ+VJi/aYnhiHXYQJMQDkCYRQULiTkGz1MfUdIcAh+/vpJ0WUNKCqi/v/v4Yw6s1WYFQLlPhsaXfr0VeHNbx9OXfDH4yfPySf3b0ley5LF0c6jLtycrFEoby6IKInqTC/ehsClaV88fPxnT3S2bNlRu4YLclPgonRplfcXrk7Zk9LXxo3nsGTxOnx4/4W+UL7i8+dginMQLn2ZiHDVBmR0aFmqsLR32dVVOz2bJYUP12UCmkxAKALr15/C2jVb8ZGMr0O+hNL/j/j58ycp8llpC3FGuoczwr6sFdq0bUgu1gtr8nAUkk29vwwKicSFFCUgdgm8fPsZp3xvYePe89i7/1BUVTNTE9iXLoFOrRvDmaIbqmtJIEqAaG9WbjogKQPZaYZi7NBeaFHHAdkMdddg8cqVxxg/bh0OHTwqURA//iLwUXbyYpiGAlCJWZxvoWF49uwFHj58Qg5NjqBrt9YYMLA5cuXSjoiO0S4vv2UCOkVA2FydPn0LE0QI9vMXpbEZUXj2bNmyImcOI9AtTErBL3yle/jhw6fknfAJNlAwtoGDuqDP3+7QZsNfVgi0+KN8//ELuHoOwaugN1GjcHKsjBZk7S5mA3LnyAIRSTCl0/mr92lKLS0mD++Bjk3/BABKaZlU1f+DB2/RqEFffPjwSQok1a5DE7jVsUMOmg0RcdZFRErxhfP9ezhevnxLTk1O0b7nrTSTsB4H9h/DoSOLYGwct2dDVcnN7TIBJvCHgL//U7RoPoAMr0PJEVFxtPGqj1o1bZHVyICcEqWXFIJf5Bk1LCwcz58H0QzCCaxZvRHTpy3D/v0nsHvPTHJhnlkrcbJCoJWX7Y/QYvpZKAOFChZARZq28nSvhWoORSDiFWhS2k9hlzPT9JpLRWtNEivZZXn9OpjcFv8jKQM2NpZYvHQESpSIywFJJvrhN0Lp0oXRsJEjuncdjadPX2DK5HWYOq2rzqxJJjtkbpAJqJDA48dv4dliiKQMVK1aEXPnDyDFPnscPWYmt+TZUKZMMXIWVhl9eo3BzRv3sXTJbgweop3uizXXQ0Icl4Cz/yOQK2dOrF4wHn67Z2PVlF6oXdFC45SBSGnTUeyEQnTz6HLavfsUfSHcpjVFW+zaMzUeZeA/CiKmROXKxbBi1Vhal8yCNWt24M2buF0X/1eT36VGAh7tumDAmEnIbaz7jr5S4vouXLBZctDmVrcGNmwaHY8y8J90wllYrVpWWLj4H8lua8aMVWREHP5fAS16xwqBFl2s2KKa5TFCm7oOyGGUmYzzlL+UExfvRqMeM3DzfkDsppP/mNbd0lDUQl1OF87fl74Q+vRpQeuNyk0Z2tubkx1BG4TTUsKGDed0GROPLQkEKtZzR73OfZA1Z64EW8mTxwSFi1ogswHbpSQI6/8Fbt58Rkt7evD2bkY7CJTbil2V/Li0bdsSYd/CsG2bn6JdalQ55X9FNEp8FiYpBETI45179pOrzg9JaSbBulWdKwG04eE7BU7S5bRj+15peK7VbRM1zB4960r1Joyblaj6XIkJRCfQtv9wLDp0HjYVddtuJ/qYk/r+wnk/ybmYdelCiWqqX/9GUr2Z0xclqn5KV2KFIKWvQCrov5BZToSF/4Dfzac6PdrIYCiZMyv3ZBEJxcjoj0tTYRvCiQmIbcOhwZ8Q/O41voUEKw0kHT3p6mfMiDQ6vLVXaSgJVBC7B4Thr75+4szrjP7vllhb7+HEjToBqHxavQSW7bqEU+ev490H5Z70/a8+lAQdNH0TcmQ/LCP05lk9YZAp6dsD/+7cDMt9dmHkjHU4tlaxqH4ywnAGE0glBJ5eu4TTe7Zj6byZMUac1cgIHXp6w6lRc2Q3yx/jHB8wgeQgwApBclBMoTZCyXFGtxGLsWbTriRJ4Osrf70r4kfXJLUbWbmUeW6sWTAOfYfPoPXPSRjQtQmc7IpEntaZ/3XcqmPf3sN4/PgdzM1zKj2uS5eeSnW6dmundF2uoN0EImhW6MrJw9i4cBb8zp2RO5jPnz5hxriRWDRjMso7V4Vn7/4oUtoef2lw9Dy5A9HgTHt7G9y5cw9ix1CePMpv/7148Yk0unbtPTV4lHGLxgpB3Gw0/sy7j8E4fs6fjPXSoGXzxqhczgYZyZ2momn2olW4fO0WBvftihLFZL1sCU9cyZHCvv+Au6st8ptOQjX3bvj3wFE0rF8X9SmyolVRExTMY4h0CnypGWU1SA5xVNaGcxUrSSE4esQPhTrVkqYeFe1MTFUuIdfO4lrWq19R0WpcTgcI/CJXuFsXTMeiKeMko9QMNM1fqYorajZuBrPCRWGYLSc+BAXixcP7WDV/Jp4/eYRj+/fg4qljmLB8PWycayj1WdMBZCobgrAduHr1Jq5fe4jqNeyU6kfcw/PmbJV8rtSq7aBUXU0pzAqBplyJRMjxgdxoBgS8kDwSLhnTnpSB9Eq1sn1HVlymGjXLF0GVCqWVqqtM4T4T1+HcxatSFWNjYwQGBmLn7n+llzLt/H4uu6yhTH1Vl61duyKmTFqJmTPXwMnZFhYWxgp3uX37WezcuVcKn1yunLnC9big9hM4vH4FVs6eSg6rfqFlpx6o16YjTMyLxlj7NzIxg7mtAyrRcsGja5exZdFsHNyzAyM6t8H09TthUchUeO8AAEAASURBVLaC9oPQgBF4tWuEFct3YPiwBeRWfDpMTbMqLNWypftx8uRJtGhRH5aWit/7CneghoJsVKgGyKruInPG9EorA6qWKXr7YaGhePf2jfT6+eM7jHPnTNQrepua+L5gwVzkjGg8xS74iLJlmsPP7xF5JIyIV9RQCku9d+8VdGw/graHZcKESb0lj4bxVuKTOkMg4N5tzB3/DyLIP/74BcvRdew0mBUtHkMZiD7YtOnSo1iZchi21Aed+g6iGBkhWDRhBH58/x69GL9PJAEbmwJ0D0+iZb9nqFShLe7efUnxR+LfHfXlSxg2bjyPQQOnoUABMwwbob1LfjxDkMgPDldTnMCsER0QPsRL8QpaXLJGDUssXT4G06asR9Mm/VGBZl48PNxQsJAJeSbMSj/2afH1K3mYfPUJDx8EYO3aXfDzvYbWbZqifYd6yJ3bEB8/hsZJQMRqF21w0g0CR3ZsQvCnj3Ct746K9ZspNahGnXtj+/pV8D9/FrfOn4JNlepK1efC8gk0a1aO/IEMwry5m2lp05uCFtmgSdNayJsvF3kmzCp5EQ0ODiMHRp9w985TCoC0BxfOX0anLq3QqVN9imWQId57OEuWDBrriZQVAvmfCa3ItbEsgqRMo+9cNlot49TlQEbRAR4+5E/+zLdKWSLE8Qfy77D33+PSK3o5ee/XrN5M/tA3yzsVI89nwzhyk+oYI48PtJdAwIN7kvBt+/RH2nTKfR0bUNTQf2YuQG9Pd9y8eEZlCsEXUlj8jx1QKWSzIhYoYq3cmr0qBFq0kJYyd5yVmhYhju/du4ctW17Ra3+C3S2lyKbilVC6cWsjzSSYJFQsRc4r9wlMERG5U1UROH3lCQLJTW7VskWQO7tmG+ypikFytvvmzRucO8deBpOTqa63dWTvnx1CJubFEjVUCwdy+kVpycwpaDVINQr+qxfPMaJ7+0TJp2ilJp16orcGKARPnjxJ1fcwKwSKfmJ1sNz0+auw69A5HN80DblVaFSog+jkDqluvSoUx6CM3HPJlamMkVNy9cntqJ6AHs0oJSZlNFTc6C0x7Ys6+hkyoEjxkgpXf/s6CJ8/fkBuE1NkyWoUb73gz5/w5tXLeMuo82S//l60dNdcpV2amuZQaftJaZwVgqTQ47oKETh39THOX3usUNnEFmpdrxzNcqSsz/asWTNSgKLk2aqZWA5cjwkkNwGzgoUxe/tBhZtdMnEUdq1dDs+e/eHaqGm89Y7s2IKZw7zjLaPOk8KGR7xSa2KFQAeu/NNXH/H+QzBZwyrn8vbD56/S6G89DKSnANknlLJW5hCRvJKaDh0/g9Ez1ya1mXjrV7NfmOIKQbwC8kkmIIdA1VpuOHZgL26dOwnLis5ySsSfddRnhVSgY8++8RdMwllh22CYXXFHW+kz/FGKM9AafEL1RBlOmkOAFQLNuRaJkmTNrvMYPmkhvoR+Q0RE/NtjYnfw7ds3KWvg+EVk9Sr7UXh+fi2MsmSOXU3pY3s7G3TtqNodrjlyZFdaLq7ABFKaQBErG0khOLDFB8XLVZJ7H8Yl49fPH7Fm4RzpdCW3xnEV43wmoDAB2V8BhatywZQm8Pp9CCbPX4uAwFcokD8f8uTOQWGQFX+iv3v/IT58/IxCBfIhaxbZabK0iQipLI9JXWdriBcnJsAEYhJwadAUm5YtwOFdW1G4REm4te2C9PoJxw8J+xqCtdPG4dmjh5Ib4wKWfH/FJMtHiSHACkFiqGlInddv3uHeg8coVDAfDqyZBONcWZRyYdqixzjsPXoBU4a0g6ODlcyoDJSMBy7TAGcwASYQLwHhkbDPiHEY490Dc8YMx5P7d9F99FToZ457Kv1DYACGdWyJu9evkHfDn2jdi7YsplfOS2m8QvHJVEuAFQItvvTiy+AneTjLb5wNxQrmVnok6f4/A5CJXB4bZlI8BoLSHSWxQu0OE6UW9i8fksSWuDoT0CwCInaFa8v25LPiHRZOGoMd61bhzMG9cKxZV3JfXMLaRopv8TMiAjcu+yGQ/BacPXoAnyjQUfacuTB4yhxYVXbRrEGxNFpLgBUCrb10qUfwA4eP/X+wrBCknqueukbapHs/WFM8ggkUaOzpk8fYvm6lBCB9ej3gL3r7+zd+/PgRBaVW3QZoN2Q0jBPpvyCqIX7DBKIRYIUgGgxte2ucizyV9W2NgnnzJEp0j/pVYGNZONH1E9UpV2ICTECGQBqy/Sle3hELD5zBkxtXceLAv3j3MgDfv4XiNwU9Eka/GWgZoXBJK5R1qgpzcuLDywQyGDkjiQRYIUgiwJSsbpw7O0b1bZNoETzqq2+qMfzHT8zecBqXrt5FyJcviZK5TudpcuvtW9Jfbj5nMgFtI5A5azaUoiUA8eLEBNRNgBUCdRNXYX8/6UniztN3uHnvGfwuXcb7z6EIpWh7GfXTIWfWTHB2qoiShfOiSN5sKpRCtumA1+Qe2WMgHj5KmnOi/Qfico7CCoEsdc5hAkyACShHgBUC5XhpZOmIn79w7V4ARs/ZjD37DsUp44ylW8nRUDq09nDHyF7uyJf7T+SuOCsk0wnfaw8kZSBTpozo16sziprnRXoltke26PjHk9mGZTOSSSJuhgloBgERtjgs9I+DsKRKZEjBjjgxgaQQYIUgKfQ0pO7CjccxeOxshJJzIpGquTihSCEzmNE2xJGTF0t5g/t0wIOnQdi2ay9WrtuEU2cvYmDPVujcVHnvaFKDSvy5ceu2VPrvjk0xpkddJWr+Kdri/zU8ashujVS6Ma7ABDSIwMVjB7F8wshkkWjl6avJ0k5SGylt74DfYe1QwLxIUpvi+momwAqBmoEnZ3diiWAFhersPWSS1KxTJQdMHNoVFa3yRXUTqRBM7Och5T0a3BYDxi/BvwdPoku/cciRLSsaVi2NtGmEKbNqU65sSfd6qFoJk6f1H2Qv8fLle+ze5Yfjxy7h4kU/8o+eB67VK6FRo/IUAKkY9PT41kse2trdSgRtJwwNDVVoED9+hOPjh/cQWxDTk9+BXBQ8KF06zfM/4EzOlsRLkaSnr49s2XMgU2bN+m74TkutT58EYffuSzh10h8XLlxEIXNz1KrthPr1y8LWtjAZeqrW+6oi/JK7DH8rJTdRNbb3+l0wpsz7EyOgV6cW+Ke3B3KQrUB8qbBZNqyf2Q/z11liBM0eDBgzB2UtpyO/iXrtCuKTUdvPzZ69A0sWbUFQUFDUUEJCQvCIvMqtXrUJHTo2x6jRbaBPth2cUjeB8tVqwqpMWYUghJHi8OzhfVw8uAcnD+6DRYlS6Dj4H+QwzatQfU0sVK5KdczZth+G2RSPlaDqcQgX8COGL8OWzYfw/v37qO7u3rkD8VqxzAe9+3jh774NdU6x52+kqMutfW92nbhOa/NP4FzZAeP7eSrsXEgYGXbzrImzfjexc99R7D5+GT1bVlMZALETIim7IX4/P6wy2ZKzYfFFMmf2HowZNVdqtkSJwuje0wsFCxrj27fv2LnjII4f98P8eavpqfA7xo33gqGh/OiIISFhEE8pBgb6yJBB854Ck5Nbam4rQ6bMEC9Fk1kRC5SvXgcVXXdjylBv9GvRAJPXbUdBy9KKNpHkcr9//0Jo8Gd8JmdKb9+8xsdXgfj2JRgZDbIgax4TmOXNDwMjI2TKEn/oYyGIgVE26ZVkoZKpgfDwCIwcsRaLFm6gGYC0sLK2QLfubVCgQB58pmBwa9dsw6VLtzFu7Fx8/foNI0a2lBsA7tev3xD3cETEL7rH9bVGcWCFIJk+SCnRzN6jF6Vuu7ZtqrAyEClnZvqRadeivqQQHD59TaUKQWSfuv7/4cPXmDVrhTTM7j280H9AE+TM+V+MiOrVLXH79gt0bD8a69ZuQ7ZsWWimwDMGlpcvP2HF8gM4ePA4wkkhyGyQAT1IqXBzs2HFIAap1HsgfBaUc2uEoRkzYUiHFlhKNgijV21Bej3Vexv99vkTdq9eTLEXtkUpBL9o6TJ6MiWFIAsZODZu3Q7VmrVGZPTD6GU09b2v7yMsmL9KEm/osJ7o3KUWhTT/b9a1dm1rUggeoam7NxYuWAtjkzzo1q1GjOE8efIOixftwpnTvlLAOQPDDBgwsAuqVSspV3mIUTmFD1ghSOELkJTu9+7/s6PAo6ZNopqp71xSqrd77376/8eSP1ENJVAp6N1nBNHyRlKTca5sMM5hIDUjtlQGvPpvOs+iYB5kzEBe3VIw7dhxAp8oWFSNmk4YO46+CNPHvL3EmqOVVX7s3D0TdWr1wozpS1DWoTj92JeRniZWrjyEhfM3IjAwMMYo2nsNQEvPBpg2vTsyZ1b9l36MzvlAYwmUJl8F1vblcObYYTy84ocS5SqrVNabFKJ5dI/2eP3qpdRPgULmKFnalhwmGeLKhTOSbYNdhcoI/vgBd8m50oSBfXB05xa0HzwaJRwqqlS25Gp85YrtUlOdOnvQj3hjmWbFPVyuXFGcOrMabrV7YNCA8ShlmReOTiXx8eNXzJu7C6tWbsfbt29j1PVs4U0zDS0xdFgrZMyouTN+Mb+xYgyBD5hA8hBYs/UQpizamuTGFkwbgWaupaR2rtx/BY9OQ6PaPL5pMqwsCkYdp8Sbu3f+/JB37dZURhmILo+JSRYsWToczZsNwszpa1CiRAGMGb0cu3YelGJT1K1XBx4tqtBSQ3ZcvPAE/bzHY/26nTA3L0hfUo2iN8XvUzGBdHp68OzSE76nT+DYlnUqVQju+Z7D0A4tSeH9QE/Fpmj390CUq1mPljsy0cxEBtS3LoivtIwwxWcXvn39gvtX/bFgzBBcPHcG99s1x/ztB5DXwlLjr9aLF+/JtkcPXu3qxCuruDdnzCRFvcUAzJ27GRbF+6F7t2k4dPCEVK9Fy6Zwb1IR2bNnwvlzjzBs6BTMnrUKFhaF0Kp1lXjbTsmTrBCkJP1k6jskNJyWDJR/On7/+c82xUx0U6syZaHQyvnymia5C/1olvl65E8hept6GhDtbcf2f6UxCgvkhJKNrTnc6jqRkeEO2ibaWTJeKlq0MC0hdEcdN3JL+38LZmvroqhYyRJ1aneXbA88WjgjXz7eb54Q39Ry3tbVTRrqpnWr0WPaIpUMO4R2Nkwb0ldSBqxoS+E/81cidwHzGH1F7lHSo2UM8SrrWhvzHSpg0ajB+HfzevRv7Y4l5JY5S3bNMR6MMYD/H5w/50dr/pkkux9556PnVXGxRoWK9jiw/zgqVbiD16+DUNrGCqNG0fKA639bpO3ti6NwEWN4tR2KRYs2oSHtNDKgpUBNTKwQaOJVUVCmjl4tsGzVBpy/8Rw1yhVRsNZ/xU5ceigdtG0pOzX2X6mkv/NyrwaPekn3d5BB77+ptnKl8uL4hglRwmlStMYcORI2EkufPi2q13CWFAJhyWxrVwrrfcbAzCy7TAhrCwsTmqa0IruCM7h96z4pBOWjxs1vmECn3t4qhXDj/Ek8vHsLBQoXwehFa5GTbAQUScKosNvoKXhw+ybuUKjmq2eOw6m+YtsRFWlfVWVEBEphCJhQEruEGrvXpW2JFyRloGrVSli1ZjjZHMgaCjs6WiKvWW6yIbpPSwufNVYh0L2NlAldRR0671jGQhrNxNkr8YWs1pVJ78lidtyMpTQ9pg/nsiWUqap02QwUXtmIrOmT+soQbZuePv2gRm8v8olaaeFUUEFYFseXvn37QWuNu9G964ioYjVqVoaxsZGMMiAKpEuXhqYeM1OQm5gR76Iq85tUSSD4/VvcvngG3+jz1vTvYSpjcPnEEWkpy6unt8LKQKQwGQ2zoE3PvhCGh1dPHo3M1uj/vymy5E/y/hpf+vo1HBMnbES/vv9EFatVpzKMjDLJvYcNybAwY0Y9RPyIkFhEVdKwN6wQaNgFUUacGpWtUcKiCE6e9cPwuTsVririG3QauhTXbt5F8SIFUKPyf9NbCjfCBWUINGz8Z/r2xo0XMuciM0JpeWdAv0W0z3kWgoNDMHxkP9rSZEZ+Czbh6dM3kcVi/BdbmIQSwYkJCAIv79/B6jGD0cyhJHo3dcO6BbMoNHK4yuBs81kjtV2laatE9eFQq4FUb8em9Ymqr85K5SvYE8ufeP78Q5zdfvr0Da1ajsXkSYslRWnchCFS2elTV+HLF/kPZmIL8Q/alqzpiRUCTb9C8chnnMMQ00Z2h6mpCWbPXwbH5sOwab8fnr76JFMr6EMohCHe0s3H4NJiKHbs2QvLEhZYP38kssWxF16mEc6Il0DJkn8cxGzdfFjuE8aDB0Fo2mQ41qzZihw5jLBpy0wMHFgfK1aNlTzPeTQbAV/fhxBPKNHTixcfyFPaLZolMKJ90X92hkQ/z+91m8Dnt0H0dH0YMwf2QG83J3g42WH5AnJVTsZ7xS2tULd5K9rnnvAUd2Ip/fz554csbSK9IqYlex+RhIdFTU/58uUk/x/hOHzIV66oV68+Q6OGg3D06ClJkT96fCV6966FXXsWkiLxA3XdBuIGLeHGTv6XHuDFi7e0y6gE3cea6wSOFYLYV07Ljus4WsFnwSjkyJ4dZ877wqPLUIyaulRmFCY2DWDn2gad+0+E76UryGdmgj0rx8LSPI9M2ZTI6DLGB+Klzalp0+rIniMbWR2vwZUrz2IM5dmzd3BvPBCnT10kt6e2OHZiOWrXtpPKlC1bGF27N8H9+w/QpHF/rFhxSnJKJE5evhyABvUG4tXLINqeWJO+hHLEaJcPdJdA4L2bWD16EOpZFULv5vWxY80KXPX3o6nnjOjUqy/WHj6HuXtPYeBsWvqjPE5JJ9CtewtpSr9/v8nkWfRdjAavXHmC+nV7wf/SNTg7O+PAoQUoW9ZcKuPiUpJ2FVTDZf+raFjfG9u3X5ZmGsTSw6lTD9Cxw3h8CfmChg1dyT5BMw0KxUDYqDDGJZc9EH7GVW2FL9urcjlOtoXgf2AxDpzwx7aD52FIVv2xkzCUsS9jCwuKNNi4ZgW4VrKGgQbth12ybKUk8mLy/KWtqXDhXBg8uDMGDpiMtq1HYOHioahUqTiWLduHWTN8JP8CLT0bYeQ/bWlWJ+ZTQo8ejSEstRcu2Iq+fUZiyKAMyJMnD549+6NYVK1WAaPHttFWNCki96tXQbhw8QKqOFchJ1BGKSKDMp1+fPUC186fwYUTh/Hk1g3coZdIwt+/k2tNFLW2g4OzK4wLFkJmo+zKNJ2kshWcXHD+1HE8vnYJ5qXtlW7r1tnjUp3qbvWVrqvuCvb2BdGvf2dMn7YErT1HYPHSIShWzBRTpvhgzap/8enTZ3Tp6kkeClsjS5aYStjoMZ3IeZg+OR3bC682fclnSGYqkwWvXr2ShtGseR106vJnWVHd41K0P1YIEiB1m3xX/zNyJO3/HoTy5Rxoak4P4sdV01IBMkjr4lFNegkbgch0fv9qGGbWQ97c5FY0EVsTI9vh/4oR6NqtDq5ff0BfCtvpC2UYWrdthjmzFkluUDt38STnQp3lNiSclfTr35ycGlVGf+9Z1MYNcm7yBga0Bapr1/bk9bABKabKby2V21kqyTQxMcaxY8fxd5/e8O43EK08W5AFeFYy0tScr70Imma+fe4Ejm7fhF1bNkhPp0K+dOn1UMahPPna6AHbarWhp4R74+S+vA7OVSWFYNPieRg0bzl9/6VVuIuI8HAsmzFJKm9T0UnheilZcMjQ5vD3v4kTx8/BvdFA1KztgtUrfaTPzeix/dC3r3zFRrgZHze+IxrQLEDfv6fi8aPH5O74E80IZMaw4X3QqbMrLQ0qzi4lGGjOnZESo1egz9LW1ihmURz16taBdenScKlSlZzGtEBxi2Ia9cUSfSiZolnjl7dM+v7/6G3z+4QJTJzUCeE/fmHzxp2SMiBqNPdwx8BBCc9+WFmZ4eDhqXjzJgRhYT8kq+UsWTR3ijFhGilbYuiQIThy+CCGDxuMefNmw86uDFq3bkOzBk609euP18uUlPDEnm0YS97/hN2IrZ09rCs6wp4C/pjRPv+c+QqkpGhRfTs2aIZNyxfjf+1dBVhUTRd+bRAUFQkBCQFBEcUu7MACFVvEDizs7u4u7O7GQFEUu0UQO1EQbBSQML7/zOUHhV1gd9mFXZh5ngt7Z+acOfPee3fPnTnhe+o4bLesRYueAxLbUvvwmwwdj21chYd+t6FHCZjsWzin1l1p2lgm0g0bx5Eivhhnvc8LygATrncfV/Tt2yRVOXPkyIEqVcxw6fJKckWMEHIZMDdkVVHmle9VN1W4M76RpRldsngRRZiyRoC/P5YtWwL7mtUp2pQrrl2/TiFnIzJeKD6iUiPAchp4Hj0lyFigQAFhRWnXzn2oVqU7urouom2FHRQP/U2qc9DVLQBj4yK05MiVgVSBSqNRX18P7Tt0EHqF0dLtyRPH0alje/rSroKNmzbj85cvgqV4GmwU1swM0RKMSI1MS6AkGQmaWNuggHZRcjNN3fVNYUIlY6xLcQe6DhxKRoE/KaHSCGyYPBKfQt7iZ2xMsp5kOEjzifkRhc+U8Gj1OHcsmTae+uTAuPnLUJgSH6lCYdeDGQYyZYAVTU0NwZXQY81mVKrQHT26L8H48bvw4EH8VoC4ObFV5GLFtChmSGGVUQbYPPgKgbirKaauf/8BGDrUXWhhVrcnjh+jMJWnKGRlKTRu1AjdundHCTMzMZSKq2I5Atbti79p0zNK15b2MDVU7ghi6ZlfRtGy+AMnTtwlt8J5iImOgX2tyliwcCgFLvHHsWOXKdnJVcp46CmI06BBvEFhRsmWXcdhb2yDB7nT83ocT548SYTh7ds3tJXA8kkspD3ikhgydBhq2dcUtnYSO2XAB7tq9hg0fhr8rl7E8cP7cezQPujo6kHX0AhF9Q3h3IW+V2ztoKWbuT+mTVz7kC2DGlbOmoxt61bB+9hhNHPpge4jJyZBaXRnJwph/B0f3r3FJ4rnr6FZALM37ER5WvVQhRIX9xu7dl3C5ImLBXHbtG1KaY474syZOzh5/DIp8ndx8ECI0OboWFUVpiSVjCIKAUvhyowgoqPjw9pKxS1Z50gxb89M+/r44QO5YGgl6y3f0+90U4or/+a3FteeUl0j+tHX0iok7Akl9GHafeD9AOFYTKsI3br3JGvSXhRz3oz2jQqIDVCRQCuP/2HvP2LK3FXpZsWMErOrQhAcHJwifpGR0q3+nD/nR5kM2RvRf3Dt2gGzZvegJX912FDyk35uzfD2bbjw5hEeHgUdHVHDzxQFSUcDe8sMCwulgChx6eCiGFL2/CQvcSRnatckeX9Jz4cOp1jzbv0S38YT6N68CSKf8yCcPXuGvD8qYNiIEaherRqKamtnyJZgMRMztHcfLRyfQ4Jw55w3dm9ai490zZ6RUeEFL08yVFNHm85dYVWxCkpXqSmkFmaphpmyk1GF5U1o3KUXrOwqYtfKhbh97Qo+/j/J0b8y3Lrki0KU6VBdQxNdBwxBx0EjoanAcMWXLl6m+zvsXxESP3/5/CXxs6QfNm30IqPgBfRWr06KQF+MHddOeMMvV86UbAda4+XLz3hEOUvCwyPJUDXtiKSSjptav+vXryGC0kvLo4TQ990vMe6fd+/excaNG0VXCEKCyc2pZUta5kz/zRYZGSUyh7jYWPTq1ZMeNsUaV6SkEDRo2EBEJkkr8v4TOlcczdYtm3Do4H5aJjImO4POaNeuLYWrNBTXVS51OjpFMdJdvJFa8gH+kCL24lUIjh4/KTTVrWMPuzJWyE2pVIsbZe7bR3JZM/K8Xr26KQ4XHi4azyHFztTwgRTdWLq/Fy8ZD5cu9YTIZAn92fNkYlJYOBLqMuI/U+zbODvL5XmWt7yfPiV162L8X718idSuiawysEh57Ac0YXleHB8/v7vo0a0bhY82QK1atdGjZy9UrVJZXFeF1GkbUpAwehNv2LkHwj+8Rxgty98564WAG1ewk5SEHJvXCasHBQtro3ajJqhgXwelq9dGbgXGIEg+UZMydhi1YhPJF0arYH9fGodPn4cc9F1SgH782daHBr08sbwFORRsgL1g/pzkIqbr/NWrV5SsKQ881k1Fs2aVyIj87zszi4ZqaakjHOkaREriZUvjVyukJJOqu6enJ9jxd7b/J2fawwe6GRVV2AP56dNHRbFPk++L58/T7JOeDsym4OHDB5g8aQJWLF9KaWtdKZBFS1jSsqS8i6FuISwY2U4qtq8m9cDkRVvhc/E2ypYyx/gBLZUiMFFpiriYGSWltwtZZMlPbkYbN88jRVB5cg2w502Rz7MsOKVGw7bj5HlNUhtLXNvv379oxeANdu7cQUvHO9GokQMpBj1QsUIFwcNIHI2863Lmyo0ixQyFo3SlakJAn5f+t3D/xjWconTC4fT9uXnlYmxasYjCXRdD3SbN0XvqfOSllYSMKMwDoqihcZKhGnbsluRcVU90dLRx8NBK1K1rrapTSJfcIgpBurhx4iQIsJzYTLvbsH4tpQwtBjXyJ87sYlasEDbOHYSjPn5wG7OAwuW+xu4VY/GvZ0JmyHj5kOK1YEXPy8GhGi3v5lH0MJx/BiHAlClv71O0neAtPL9VKlelrRfRbQ5Fi8Mi/VlWrA6LCtXQvIcbIr99xeuH97F5/gwE3LuLPVs2wHXcjAxTCJLPNzwsBD8o9THLW1C4mFHyZpU6708BwjTITTu7Fq4QKPjKm5iYUnCamnAhV6ejhw+SZeoDBY+YNvu8tF3jWM8ORynYzfHTl3Ar4AUlOLJKm1CBPbJC+GRVcS1S4GXMcqwLFSqEUqVKo0OHjqhbrx7atGmdKXOMi4kWlumfU+ZAP19vsL36ly/iVzt1dHUFT5aMEOxXXCxekm3D7fOn8ejODVy7dAFxFGvg39K0pTNK2FBqYIcWMDK3Qk5SaFSlZGdlgF0j1blSqnJH/V9OZqDUz60/HBo3JsOy+GAoJ44dVZpZqNHeWK/OLbFz/wmcuhyY6QqB0gDDBeEIEAIsgFHXbmRF370b2dgYCeGCZTVIlhVQtkIR9vwJbp87hf3bN+MrZTeM+PYtMVte206uqNmiNczLVkT+DIip8P3zJ0zt64IHfncQTa6FKRWvo4cAOrauWIzWHbug0/AJ0CRDQ16UHwERhYBZxzs4OAhpcZVf/JQl9Lt3j3LHi76Nr1mzNmWiVFp+//lNueu34tatGyn20tPTR6VKFdGNvkiY8WJeimGgzKVexXg3yblLPDBnWBtlFlVhsrm4uKTI+8aNm3j+/FmK7arQwKLeOTm1pB+07B3PgIUxPncu7fS7NWrUJBuQdmjarBkMDQwy/BJ/DnmD98Fvce2MF149DMDFc2cEGZgropmFFUqWtUP1ug1hXbl6hoYv/kJxBWYP6oHbVy7RkromqlH0QqfOZIBpai7EF+hUqzyiIr7j0M2HCH7xFId3bBFcKbevX43nz55g4uotgsGhvAGdN38hStvYiGXLtmx7du8qtk2VKqfNmEUBteTjphz06jVGjRpBXoQ/kkDQsWNHWgXrILpCoEvx0xcuXETZ2LSTEKjayZSp08QqBF26pPwDkNocr1y9Sj6o4jNg6dLDOpJCG7u6dBbeJHKRtS0vfxEIpqh7wR+lc+H7Sy3ZJ1vKI6Ahw/69h0fKCuJg9yEqrxDkU1PDvPkLoK+nKxmQWbRX335uqc6sR8/e5FY2hJQAwwwzHkwQKI7etm97H8N+8iR4EBggBPdhLpksuE1zWn6v2sABFRo0Q37ao8+VJzd5S2RsPLkYyqo4y703bpEywMrCbfthXZViNvyT/TDBBbKosRnYUZZyLnwIeoVRHVvgmq8Phnd0xKqjPsirnj9h2nL5X6p0KdStXUssr5dkH5UVSknLkinOUdr5BdBqNfOWSF6sra0p8VIrUYUgeUd+Ho/A6lWrkrgsMSWgBtkGtGjeAo0bNyKf1KTJalQBtw9fU172k6f8G3YexrQl2+XJUoSXn9ca2NlYiNTzCo7AqVOnsXvXjiRAMN/+cnZ2qF+/Ptq37wAL8xJJ2jPq5Na50xjXowOYOzYrlarXhC6FLG5AWwEmJUtR+GJT5MzkF4ygR4F4EuAHLVr2n7luO2xq1hVkTe0Py3egb2aBRftPYUjbJnhLK21P/e+gTDXxP96p8eJtGYeAyJZBxg2tOiN5ku++p+ff/f/ptITTs0d3YZ9RdWYhKunJi4FCZYe2mWMoJSoRr+EIyBcBFhdi/oL5SZg2adKMMk5OgW0Z8UvNSTor+OQTJbBKUAYGjR6PZt37KzSQjyzT8adshd/JdmHIhGkoV6u+VCx0jU3Rc8hozBgxEHfPn+EKgVToZXxnrhCkgfk7ito4YRzlJKd92JZOTqhTty4tv+qlQaX8zZf9XmLKvFWCoPYVLRUq8IDubdC2ZROJx6jRog9F5vqB+747JaYxN1S9FRqJJ8c7yoyA57FjuOfnR7Y9lcmupyGa04oeUwSUJeOhKdkF1KM4AgG3b2Dl/NnYuGIJKtesgxKly1Cq4wYwtiqNgkUzd7vnCNkDsGLvKJudkV3teCXizNED6DpuusCL/1FOBLhCkMZ1iYuNw2lvbxhQHAFlKyyIS0Tk32hhacn3NTIGgS8/4dSFu1i9brPQvaRFCTg1kD7HeVpj/duuSyE+2SFpSYiSWaZE5n4RSiov76ecCLylMK3Lly3D/gMH0aB+PaUUshSFI5625QB+UGyB+5fPYTelGL555QIun/PGluULBZnbkqV+XecOKFmpBqXPzUN2BBlrrBxMeR9Y0SMDQlmKDm17sBL0+pXwn/9RXgS4QpDGtTE1NUmjR+Y133/8CuWb9pdZgDI2pbBqpjuM9fnbtcwgckKlRUBXRwc+PmTIRnH4lb3k1yqMqs3boDwZD358GwT/65fhTwmPrl/wwYE9O4TD3KIk+fVbohK9cZetUg3G1mVIOVD+uSk79ly+vwhwheAvFir3iS176utKn6XQsJg+unV2RpcWlSlscfZ2R1O5i84FlhiBfEoQGVRiYf/fkYUfNrS0Fo5mrr0RTREA/SgOwS5y3wt6+RyvXr3AhdMnhN7FKCNih559UaGeA6VMLqOwvAGa5N0QSS6FH4JeQNdE+lWC1/fvCvJalrSWFg7eP4MR4ApBBgMuz+GszI1x78wGqVjmpAQvhTTVkCd3TqnoeOe0EYiIiKU8HZFpd0xHD13dAtk6tGo6oFNJUvWCWqjRqgOqtWiDsKCXeEhBgfwv+cDnpCdCQ4KxdMZkFFi2EPvuPIMG/XAronR1G4zVC2bh7IHd6DxiolRD/KHcEMd2bxNomrTrJBVtZnT+/DkK37/HKHRoI6NCtPWTS6FjyMqcKwSyIqcEdOxHXU+KvfnkIn/9Ho3YuF8ooqVOQZT4rZAcH2nPPY+eQ3+3udKSSdV/1+6ZaOHIXbekAi0LdGbhfw3MSwpHw7ad4D4vGgEXz1KCo8X4QFkRWVRDRZVqLZzJ2HERDm7dgEr1GqFkhaoSDcVSb78ml0Xf44eFlMg1mrWSiC4zO82ftwlrVh9QqAj3H+yhrKfKZ5PGJs1fExV66ZWb+STKeliv42jce/hSuQXl0nEEOAJJEMhDWwsVGztixeEzWE0Bf/JT9EBFFUMzc7Ts1BUfKQvulH5dceXoPvz8f9yElMb8TVlzffZsxWiX1kT3AR1794e+SXxk1JRoeH3mI8BfCzP/GmSaBMEhoXj89Dl+/JDcUyHThFWBgRs1tofX6U1yk5QtXy5bugm3bvoJPIsZ6FMALMUsC8tNaM5IJgSiwr/ikd9tMihklvg5oEPBiczI5bCIvkES24A/5FnESkKwIrZywPoqsuTJmw+9xs9ATGQEvI4exLh+3VC9Vh04detLuRSckwzts38HQsnO4ZbvWfjdvS24d/YbOV7qrYYkTDPwxK1/Jzi1bCa3EUNCvmD6tKV4ExQs8DQxNaK0AMprCMoVArldes4ouyPA9vfZIY9y5cpTzJqxDM+evRbYNXaoSyGI3WBqqvoxMOSBT1biEfLkASb374Hnjx7Q0v8fYWrMvdDIxBSj5q9AmRp1Eqf7MuAONi2ei0bNnWBXhyKkFjNMbFPkB5baeMDspbCtWgN7164QshxqGRQXUQimDe6TKEaVmrXQrt8QVKB4CqpSzMyKgh3pLb9//6HU2fcxZ9YKBL99J7Dr4toG48Z3hp6e8iZ64gpBeq98JtM/D/qAJdu88PBJEL5HSJcv4MVL9jYC9J3ogQJisqX57pxO9eqZPMPsNfynTxHYssUbSxZtRgRdT319XQwY2AV9+jblxoRZ8FZ4T4aC/Vs7IPzLZxQlN0kWrli9gBaiwr/A7/oVLB7jjkUHTgkJhNj0mdfBZUp8xI6iOroYPmMBqjZ1Qp58ivcWYrkUHLr0Ru2W7cl+wQffo/6GPi9XpTpFXIwhOdRRt1ETmFmXhmXFaiqV+lget5eQoTLsG1auOIL163YjJiaGlHhjjBjZHZ061yUXWOU0JkyYO1cIEpBQwf/hETHoO34Fzl+6ni7pnz17LpaeBT7iJeMQ8PcPwZRJa3D+/GXBSKxGjRpYsMgNtraKXRLOuBnykZIjcO7wXnz7+gVmFF9g8urNKE7bBMz1MJYSHvke2oNZIwfBY8pojPPYLpAaUGTDsXMW4/6NKzhx5CBmUUjgCZSsxt6xbXLWCjtnqwVVm7cGMxpMKNPW7xS2NljCo4TtjIS27PT/6tWXmDZlNa5fvy1M28mpKabP7IESJVRjZY8rBCp8t376Eo6Ah09RsIAmJo/sh7KlzaVKuTxxzipcvnEPS2eOhF0ZKxEkNDXkm5lMZABeISAQGRmLHdt9MHXKCrLn+IFiFBWze89WGDq0DWXPzNiodPySZCwCgbeuC8qfy6DhKFG2AmUyzCEIkC+/Bhp27Iqzxw7hxpWL+P75Iwpq60Db0BjNevQXjvK1G2D+uGHYMH8mKlFAI7X8Gfu85qBsjAlF3lkME/iqyv9v36KxcYMXPcPLBJFNaFVgyFBXuLrWJ5sB1fmZVR1JVeXOyEA5IyMj8fnzF9hXscXQbo2R658HVBIxtLXiv0DKWeqjTgVTSUh4Hzkj8PbtF7h0nkBpb5+Bpby1KVMKm7dMgrm5vtL6KssZgmzN7sp5H2H+1Ru3SFQGEgDJmSs3Gjm1QSClXf8c9k5QCBLa2P+GHVzx7N5t7N22CTe9DqN2G9lSu//LU9LPkV8+wf/CWbx8eB8P7vvj5YtnMCYvAhvbsrC0tUPZWg1QUEc13oolnXNK/R4/DkVLx8H4+PGr0KVqtcrYuGksDA2LiE01nBIfZajnCoEyXIV0ypArZw6plYF0DsnJ04nAjx+x2LL5FNauPYRXL1+jSJHCtMfYAsNHdISOjuJcyNIpNieXMwJ//sRvyxXQFjVkY6sF1nYVERUVieA3QTCzKZdkdKYwNOvSS1AILp4+qXCF4Pevn3h+7w72r12Oi2dPISY6Ook8YZTz4OblC0JdLkrZ3KCZE1r3dIN15RrIRd4QWa18+/aDbAUO0ureSYSGfoR+MT306NEa/Qe0RKFCGbtaIy9ss95VkhcynI/cEPgWFQt2SFr++/Of0PXNh++SkkCfAjTlVdLoX8kn8eXLDwzovwSnvM7iD+3DGhkVx8rV41CnTimVe6NIPjd+Ll8EjEqVERj+ILdEccXUtrxQ7e15CBPXieshv7pT2zdgydRxiemaixuboEWbDkJ8gbzkmvjzZxwFSXqDkwf30YrBc3gfO4zLPt4YNXsRGnTsJj9BlIDT+/cR6N1rLi74XhakMTe3gMe68ahcuQQSkrMpgZhSi8AVAqkhUx4COxsL/PfmjMwCHdkwTWZaaQiXrNuLaUvijaKkoTOpJHm6VT+vNWB4KHOJjv6JI4evYfKk5Xj//qMgaj+3zhg2vD0MDHiCKWW+doqSrU4jB1w4cxrvnj2CgWUpkWFy5sxFb5uFEfTovkgbq0iwORDbKKdKFvvg3IGdmDduuMCxTZceaNa5m2DzwIwIk5e27uMEeU/u2oK9m9dh2lA3RNH2pmPP/kliKiSnU4XzKHqx2bXzPCZOWILo6PgQx8NH9KKVvfYoWFDxnh6KxogrBIpGmPPnCBACP37EYfCgldi/76iAh46uDrZtm4Wa9qLGnByw7INASTIkZApB4K1rYhUChkSf4WMQGvw200D59ukDti9fIIw/aOxktB86LlVZWLAkM1q5GDinPKxsbDF95GBsXbEQNcg9sqhh8VRplbmR5Snp1nU2Ll28IohpamaCw4cXwdxCR5nFlko2rhBIBRfvLAsCA7o5o62TgyykEtOYGylnsA8WoOTwoatYtGgHGQ4+IovjfGjb1gHjJnSHsbG2xPPjHbMmAo3auWA/vUXvWbcSVRo2QyFdfbETvXr+LPqKabnrfVyobezkLKZVPlW3znrhFW0BNHZsDac+g6ViWrd9V9wjTwrPvTtxjWR1JA8JVSuxsb+wfdsZynGwnwKFvYAmxWzp4upIK3sdySOokKpNJ1V5uUKQKjzK3fgm9DMmr/RMt5BVyltjQNvqAp9X775i/kYvRMfE7/m3qm+HVg3i9yllHUi3iCbYkd0Ky5o2f/5hLF/qIUxdXV0Na9fPQatWFbIbFHy+KSCgb2qOpTsPoW+rxlgzfigGzl2OgkV1k/Su3LQVFk4Zh1+0R587z9+wtyyU8KzRQ4S+Nes3SkIjz5PAG5cFdq2794GalDkTcufNC8fO3QWF4MH1yyqlELAgQ+HhPzB58g5s3bxL2J7Jn18d23YsQMOGpeUJsdLw4gqB0lwK6QX58uUrtm7fJT1hMgqdwn/fPX7++o39B4/gM/FmxbRornQrBMmGyxanly49wcTxy+HnFyjMt7OLM4YOawdra4NsMX8+SckRKFG+ClYd9MKqyaPh3roxnLv1QqnylcFyCLASG/0DJiXMMb13Z3TsNxjq9KP8/etn7FizHF9oOd+CogLWoOiBiipH9u0WWJeqWkumIVjEQlZOHj2EsWtlYpEpRJ6edzBrpgceP3omjN+7T2eKLdAmS6/scYUgU241+QxqSMlulsydnG5mFsZ//YULaqhh+oRhiPv5S+BbzdY43fyTM/hDmndUdJywCvE1PAJvPkYiivbYi5BRTgkyritAgZbU1fIgb+5cyUmV/py5E65ZfQIzZ6wEi/RYuHAhMjjqRV8kTkovOxcw4xGIpfC/xzauwA6PlfhC4YtZWThxtFhBXtOyve/pE0naNClq4OApc5BPXfFubsw2QJYiK50sY8mDhrkTzp61h57jrQI7PT0dzJg5DB071ZQHe6XmIdsVVuopZR/hdAprYmhn2bT2lFDS19bEgHbx2wcp9UlP/Zv337Bw7X5cvnkfHz59Rci70CTs2JKcmUlxmJsYYFCvDqhT0UxlFIPHj4IxdMgSXL0aH7a0YqVymD3HHRYW+hRA6m/c9yQTlvKkQIF8FA+dP7ZSwqa03W+c98aqebNIeYxXwCURNC8tw9uWK4/SFaugUbsuMLUpKwmZzH3K2lVAwL27iI74TnkWpM+2ybY2WLGwLCmzDBlFePnSQ4wetQyBgY+FIR2a1MXoMd0p4ZGu3J7hQoXUlda9mH+zZNSdls3HYf72u07chOvASQISuent39CgGGxKWUKDVgNu+j0U6s0pPWj49yh4nvIVjm6d22LuKBcwRUXZy5079xOVASbrndv+cGjUS65i79o9Ey0c5asEylVAzkwqBFgeA6YMuA4cSimGZyplHgCHtp0EheCerzeqy5Az4f4VXwGTRq0Vt60hFeipdD52zCdRGWDdTtP3EDvkWe4/2AMTk2LyZCk3XlwhkBuUysco+GMEvlICpEIF1FBcRz5peWWd5faTd+A+dp5AXq4shVru7Yw6lUuhgIY68pNCoFGymdB2fu8ihEdE4cCp6xg7fRm27joA//sP4LVttkooBbLiw+myJwLM6I6VOuSSp6xJgSrUawxdvUXYu2ENbGvVh2YhyT164mKicXDLOhQoWBCV6ivW0yh73kHynTVXCOSLZ6Zye/bmI46fv4Mrd57gyDEvYQ87QSAWStSxuQMc7MuiQQ2KN26ccb6ztx8Go/uA8YIojg51sH7eUOil4HWgraUOdozp3QIdHWujfb9puHk3ABMXbceG2crtstSgYQ0cO6HYcHE2NtwoMeGezgr/m1I+AnYoc9EzNkVtUlgO0A/7xjlTKF36LIm2DqJpq2DPigVgLpONWraFaSlbZZ6mIFufvh3QrHljhcqppycaplqhA0rBnCsEUoClrF1jf/7Gyp0+WERGMGEUAY+5yyQvzMDtiOdJeB73gh4FxZk4oh96tq4BtQzYj95xKD6aYosm9bBn+ShhRSC5fOLOTfQKYuWsoajStCd2HzqFie4uMNWXfg9THG9F1Onra4EdvHAEshICzNWx7ySyc4iLxcGtGxD88jn6jp2CBO8BcXN988AfHrMn45qvD7oNGAKXERORh2JwKHuxsNAlmx9dZRdTYfJxhUBh0GYM40gKhzt1+V4sW7tTGLBieVtaAbCDQwN7GOpqkeW+urBtEPw+HD4Xr+P0hdu0BP8IQ8bNwcMn7bBgTFeoKzg9p9+DF8hHS6Mj+7aTWBlIQK+yTXEMd3fD4uUe8Dx3D+6dayc08f8cAZVH4PvnTwgLeimXeZSsUEUufJIzYW/6Tymron0Tysj4+ycO7d2FG5d8Ubt+QxhQHIXCesWQV00dP2NjEP4hDCGvX+LC2dMCm8YtWqIApW0+sWNTcrZJzi0oQ2K5GvzZTgJKJpxwhSATQJfnkOv2+mCpxw5he2DulBHo274OtDTVkPP/edXZWEVpCd7SqLCQ4nhE71bYeuQqhk2YC4/N+8iavziGdVNcUBM2/tUbd6Chng/Vy5Vgp1KXYV3qCQqBx8btXCGQGj1OoMwI3PA9i8Vj3OUiotfzD3Lhk5zJuzevMcpVNK/IxXNnqSs7Ui7ex4+CHWmVtn0GcYUgLZAyoJ0rBBkAsqKGeB3yEYvX7ACLgLd56WS0bZx6BDymJBQuoI6hrg1gpFcYvUfMwpxlG+FQsxRKWxgpSkz8+kUuVTnIXU7GbISa6vGGVz+SpVtVmMByZBwa+h0vX76DH9lBsCyHMTE/kT9/XsqVrg3bsqUpUJEhhUJV/qVUOULCWf2DQJGiRVGuctV/alL++OP7Nzx5GEhJdaIpVkcBlK9uD7X8ive+0SBXw9oOLVIWTA4t1mXt5MBFMSyCg8Px4kUI/O8F4uvXH4iL+w0NjbwUoEiPnuFSsLTUF55pxYyesVy5QpCxeMt1tB3HbyEk9D2qVyqDlhRiWJrC+m+sUAqnzt/A9mM3MGeY4hQCaeTKSn0XzD+KxYs8KC3sL/oSiUsyNZaljvmTm5gWx6jRfdGhg2Q/CkmY8BOVR6B8rXooV12ypXLmuvvjezjO7t6CLauW4F3Qa8xYtx3FLKwUioOekTHGr0p9yT/dAuTImW4W8mbAEpLNmrkPmzbu+P8z/DPJECzNMXuGS5Wywphx/dCsWZkk7ap4whUCVbxq/5f5jO9V4dP8KcOQJ7d0DxTrP3V0f0EhuHj1FjBMdElQXtCYlzBBWNgHvA4Nh6kMyUC2nbwniNKutWLfUuQ134sXAyk96lrc8wsQWJqYGqNsWStoaxcQ3iRYjoMPH77h+rXbePrkOfr0Go3jng6YMasPTE0zzvtDXvPlfGRHgKU3zplX8oicedX00WbwaJQj979F44aif8tGmLRyIyo1aCK7EGlQMuU1R67s81Px589/8Dx6naKNbsTTp/Fhi0vbWJOxoTF0dAqSEpAL375FC8/w+XOXKTx5ADq2H0iRDJ0wZ64bPecaaSCqvM3Z5yor7zWQWbKLV24ItPbljGXiUdXGUKBje/yKLKWtLPHq9VtcuOoH0zb1pBrqPS3RDRkzTaBpTm59yl5evPiEHt2m4uPHj/TFoI2588ehdevy9CUi+qixN5AFCw5j5fKNOHr0NAICnuHCpdVgkcx44QikhECOnDlhSQaE45auhZtjA2xdNAvl7OsKhn0p0fB6yRG4d+8NBg2cje/fv8PAwAALFo1F06a2yC3mpSsiIhZTp+zA+nXbsGe3J548DsIJrwUquw0o3Wul5JjynhyBRAQ6O9mDLXdOXLgFF+68TKxP60M0pR2dsGCb0K1ls4aoW142xSetceTVzvKl9+45XVAGWrZqgvMX1tFWQGWxygAbk9kSTJrUHmfPrUflynZ49eolZs/eTjYXf+QlEueThREwsiyFRo6tEOB3B/cvncvCM824qb19+wWuLhMEZaBHz/a4eHktHB3LiVUGmFQslPj8BT1w+swGlLYpCX//+1i1Km0jyoybkXQjcYVAOryUqneePPFvnSxDoSwlgS63jElLJB2zY/OaFBSpiZC3oJnLUCzf5UuJjeJISRCNl/Dr9x/Exv3C3cchcHJbgI07DtIbsxamjVDu4C0MixPHL+DOHX9Uqlwe6zeMpOX/tAOQsH3IcuVMsGTZCGhpFYTH6p1kuPRdUmh5v2yMQC56bpu07Swg4L13ezZGQn5TX75sO96+fYvmLRywbPlA6OqmHfckV66cqF7dEgsWjhBefGbNWCXYHMhPqozjxBWCjMNa7iO59e4q8Fx34LJMvLcfuynQ9XDtIBO9NERb5w/AoD5d8ONHNIaMnYWKTsNx+XZ8/oJ/+bTsOwO1OoxF/XbuOOtzDna2pXHx0AqUs1T+CH23br0SpuLW3xn5pIztUKZMcfTo2VagP3LE719I+GeOQIoIlK5ZV2jzksC1L0UmvCERgWdP3yNPnjwYNLhVYp2kH2rUKEl2BPF0J07cl5RMqfpxhUCpLod0wjSsXpqyZuXCqg278OGrdNn0WP/Vm/YK9E3tbaQbWIbezN1x+cSu2LNxESqUK4O3wcH4Gi76Jnz63DU8efoSavnyCKmdL+ybD1sL5UwEkhyGbVv3C1X29uXADLGkKWyloLNLvGHYiGFTpSHlfbMYAn/ITTc68jtY0KKP74IR+jYIn9+HIoLSI7MgQX8o6ui/ZdKCZWAHL+lH4Ny5K6TM5yHPAVOpmbGVgu49HAW6iePnSk2vDASilk7KIBWXQSIE6lSyQiW70rhFmQJ7jVmOjfOHQlcCg7RPZCHL+t+jFJ+lS5ZA7SqKVwgSJtShUVk0qTEXz4Pew4AsdhPK7InuKET++AYUH6GEsSGK6RRC0UL5E5pV6r+BgWzhi62t9VRqnlxY+SNw48RhHNi+CV8p4l9E+Fd8JSUgJiaGtpO0KEGQFjS1CsHMujRaufRAqf+7KzZy7St/QbIxR/bDXqSIbN89pUur9jPMFQIVvvFZRMKl04eheZfhOH7qHGq/eA2PecNRtmRxFNRQQ266sRMK25uPiIqF/9M3GDp5FfwDH6EQfcmsmjuakgnJdvMn8Jb2v5ZGPlQsndRAcFzfeM1aWl68P0cgKyDw9ulDbJ8/Haf+v/Svpq4uKABFdHSF1SZmbxMTG4vQxw/xODAAXgf2oGu/Qeg0fDw0tApnBQj4HJQAAa4QKMFFSI8I1WyL4/Cm2XDuPQFPnr1E085kzGZsIPzIN2/SmCzc8wgGLse9TuMLrQy8ehMivHHoFNXGHo9pqFXeND3DS037LSpOiEfAlBXTYlrQoNTHWaWUK2crWBk/eRIGKyt9qad1+XK8z7ODQ0OpaTmB6iLwMegFhrZvgY9hoTAwNEQzMhSsSpEBtYUcAWr/Vwj+II4iFIYEvcLVE4dwdO9O7Fi/BlcvnsfS/SdRsGj2TcgjzytvZmaK9+/f4927cHI5LCQ1a1/fJwJN/QZ1paZVBgKuECjDVUinDLUrWuL6sbWYuWIXfC/fxmPag2flyq3AJJyZsYxBMT00b1QL4wa0h5GO4sOeJgjw/ksk1uw6g2nzVydUkZ9+UfTt1hbDujeBTqG/wTxehHxFcEgoTIz0oV+0YIZkZEwUKh0fqlZcILFoAAAneElEQVSLVwjOnrlF4UxbgNkFSFpiycVy8yZPoXu7Do0lJeP9VByBCLITmNLXVVAGzCytMHPdDhQvlXLEO53iJihbvRZqN2+N6UP64fmjB9i1fD76TpmHnGRPxEv6EChpZSJ4GdyhFPIGBlWlYhZNiebWrz0k0LRqXVcqWmXpzBUCZbkS6ZTDgpIXrZ/VH5++RsLv0SvcevAWn79F4ie58DH3RO1Cmqhiawo7a2Pam9eUOrJhesQL+xyFak4DEfT2XRI2n+nLcP6y9bRqEYrdiwcltl25F4Te7uOhXaQwalYtj5XT+0O/yF+FIbGjkn1o3qI6dmw/jFUrd6F+g4pkmCS5Z8SRw9dwzPM05TYoCQcH5c8br2TQq6w4l7yO4uF9f5Sxq4g52w9Bi7YI0irsh7+MfT3M3rQb7m2b4fCOzegwcCRlHZR+VSqtsbJbu6NTXZw+dQEzpm1A+fJWMDKSfJVgy2ZvXLp0BRUrlUetWiVVErq/m8wqKT4X+l8EWDjiYmSo16x2OUzp3wLLx3bEmsldsHxcR+G8qX0ZFKM3bmnDHP87hiyfd3n6CspA4cKFMWviEATdPohfr71x23srSluVwJ4DR7HN83oi66KFNWBXxpo8IHLjIP1IOrvNxpOgD4ntyvqhShVr1KhRAcHB79DScTjOnfOnIENJLcKTyx4ZGYvdu85j1MiFtJUTi1at61CwEx6pMDlOWfX84c2rgu+6y8BhEikD/+JgUa4iXHq7IfrHD1w+suffJv5ZRgScnKqjDH33PH78FM6tRuH27edpBgpjYYzXehynUMdraFUwJ3kLNaKXMNVcreEKgYw3DieTHIGLNx4ID8p4d1eM7d0cxhTsIxctp1e0NsD+tVNhXNwQW/ceww/KBMhK46rmOL9nLvxOrkSDujVx7fpNzFixT/IBM6kny4C2Y9cU1K5Tg3I3hKJTh9Fo12YqKQaPKf5CXBKpPn2KAos30KzJcAzoPwPh4eHo3tMFI0Z2lGqrIQlTfqJyCHh7HhZkrlhPtm2ilr0HC/RrFs5Wubkro8AsbPixEwtRqrSVoBQ4Obqje7d5uHbtJWWZjP9+SpCbZTLdvfsGmjQeQgr9AkRERGDEqIHo3t0hoYvK/edbBip3yf4KHBEVjev+L/5WyPipoo0Zimgpbkn+7IVrUFfLhzZN7UV+7CyK66Bm5bLwC3yG75HRyE9GhszgMDelPNagY8ui4ajZ+g127juKGcNdYGag3BbV+fPnwxqPURg7ZiV8z9+Ej89F4WBZ0SpXqURzyyVkPrx2LT4PBbtkxibFKcRxY8p62EnqgEYyXnJOpiQIxMREC5KoaRaQSSJNssNhJZJ+jHiRDwIsCdmWrVPpGV6Oa5R/xfPoKeFgKaftypdFTsrMyDw+btCLSkKxLGkB167NMXSoc0KVSv7nCoFKXrZ4oV8GvUOzLqPSPYOzu+ahTrWy6eaTEoOoqEhoFdQQm+mQrRR0dG6KPYdP4f2Hj4IR4b98jGgLZIhbN4wYPxM3AoOVXiFgshcvXgRbt02kN4x32LjRGxvXbxWUgCuXr/47NTJaMkRfNxd07Vqb/J41RZSlJJ35CUeAI5BhCDD7nwMHZ1Eo8tfYsP4E9u09KKwAXLp4JYkMZmYl4DagM60K1BECGiVpVMETrhCo4EVLEFlDQwN17CW0hKW0AR8/hyMg8IFAbmlhDiMDPeFHqBDF0M+IklL0vso2xfHff/8hMjrpsnqCTJ2a2JFCAIydOg8dG+9IqFbq/ywzWpkyRli8uAcmTOhAiYs+0LZBLH5TPAi2v6hFKzJmZkXJXkBNqefBhVMsAvUdmuHc6ZP4RNEIi5IHgbQl6H58mGuXXv2kJeX900CAPafVqpmjSpXBmDmrO968+UzPcIyQg4VlLy1cWBMlSuhAXT3ruE5zhSCNm0KZmy1M9HF221SpRHzw6iO6DJ6NF6+C4N6vCwZ1sJeKXpbOFqR8hIWG4h1lAzQoqinCoph2fN3p689Rs2IpkXZ1ejBVtTAlqGhRDTrMVHUKXG4FImBbo46gENy95IPGnXtKPZLn1rUCjX2zllLTcgLJEGDuw/r6BYVDMgrV7cWNClX32skkuY2ZDnz3zsPw/l3ojXshxi/ejbifqVvCyzTQP0QVy1oJwZGeB4X+U5v0Y/06ildMko7IzzgCmY9ATYfmKFREG1uXL8L719LZA905dxrHDu5D9XoNYVW5ZuZPhkug8gjwFQKVv4TST0CLrOFH9XbE5et3sX7HUXRsbo+yVsWlZyQhRUfHuth76CQ8dnnBvryF2L1y65JmCA79KJbj6ZvxgZaYYaIyl+vXn1IcAl+5iLhyVV+58OFMlBsBfVNzTF22FiN7dkK7amWw88JtGFpYUZChlL+af/38iSc3r2BY51ZQU88P92nzkJuMVnlJPwIHD1zD+fPpz1TIDBOnTe+UfoEymEPKd10GC8KHy1gEWMjgof1c4OjijiPn/BSqEDSuWQbdKC3oviOnsbVWZXRuXgX5km0DWBkXxZBJS7BpZtJl02iK4Lds3S4BnCljh2YsSFKO9uL5C2zbulNKKvHduUIgHpesWFuhUXNMXbEBu1YuxJB2zVCBthGat+8MHYPiQmyC3LnzIJa8Eb59+oB3r1/i5L6duH7BB81at0O7voNQRM8A0d/CU4Qmb34N5KIopbykjcDNm7fpGT6Qdsc0ehgb63OFIA2MeLOSIdCiVvx+/ZQ5KzC5v5PCpGOuhBtm94ehvi7cx8/HTf+WmDbYmVwM8yWmCbazsSBDu4LY7XUbLWrbCvW/KM3r2r3ncO3GHeTPr04Ghcodwa9W7SrYtmOpRDgGBYXh4H5PMjYMJsNCLYyb4IbSpU1UNqCJRJPmnUQQuOt7BgfXLBbqtbW18TDwPryP7BcOkc7JKk4e3g92pFVmbd6LWk0V93ynNb4qtXdxbY3qNSTbvnzxIgTbtuzC58/fKQy7DsZP7IeSJY0ooFpOyiGjmnZPfIVAle5WFZX1568/8PS9j3eh78A8Izw27sSps5dgWExH8Mtn02I//nFxcRgwei5WWJkLD1VkVAzuBQTS51xYOGWI0s/e2Fgb7JC0DBzogIcPgrFq1WGMGzMXzs4OmDm7DwoW5J4HkmKo6v3evw/DpQu+qj6NLCO/ra0R2CFZKQ9396YICAjCnNk7MWb0PLi6OmHsuM70Pafc25spzY8rBCkhkw3qEyIDKnqqhyjZT8d+E5MM8zroDdiRvERHx+DazbuCElCggCZMihtgyphB6OFUOXlXlT9nrollyxlj7boh9GWiSeFPd0CTUlrPmNVLUIhUfoJ8AmkiUKeJI8qR3YAiS2FDxdkHKVJuVeDNXBMrVixBMQsmoW+fxVi+bCutFhTE0GFtVEF8ERm5QiACSfapOHX1sTDZmtUljGUgIzQBgY8ESpZlsXf7BhJxYZkZdXV1UUy3CIwo1HFWL8OGt8XBAyewfbsn+vVvDROT+Ah0WX3e2X1++bUKgR28qD4C4yd0xZ7dR7Fs2U50696U4hTkV7lJcYVA5S6ZfAR+/vYTps5fIzBrWl+xCgFLpqSurobZ4/qirAXPyCbuCurra2Hy1BEYNGA89u+/hpEjHcV143UcAY6AkiJgaloUU6aOxrSp83Hs2B2KQFpLSSVNWSwehyBlbLJcy3dKsOP37D1W7bmApq5jcf/hM+jr6aIVpepVZOnetjFObZutEmGHFYlDWrxbtLATuqxeuTmtrrydI8ARUEIEWjtXEqTauD7eM0oJRUxVJL5CkCo8yt1478FzlG/aX2Yh9fX1sGiKO2wsDGTmIQmhaXF9sOPf8j0qFmGfIxD+LQKfPn0SDAqLFCmCgmQ3UKigJgwoh0HeZK6J/9Jnxc9FimjAytoyK06Nz4kjkC0Q0NEpIDzDWoVUc5uTKwTZ4jZNOknm3tTBuQX6tKsL25KGSRsVfBYd+xNr91+Gx6adlN0wBj/IiDAyMpJi/P+GRv78UFNTo+2FfKhkZwO37m3hQKmQs1M5cTLeBS07zZnPlSOQVRDQ0FAHe4ZZuGNVLFwhUMWr9n+ZS1ma4umVfVLNgN2ohjqaUKPkHBlZ/vz5D0d87mDG8t245x8gDK2rqwNzM2NSBNQopWgO/Pr1G1+/R+Lxk6c4EhKKIyfOwq1HB0wfRkFaCqmegY4s+OpmAwNKWXDhNBwBVUCAfb+q8jOcsb8KqnBFVUjGfPSjblm8sEpIfOnea3QZNA3MrdDKqiTce3eEYx0bFCCNOnfuXGD69B/KePjz5y+EfPiK1bvOU7yCbVi3dT/OnL+CK0dWQo+W1JW5+Pu/xjHP9LuQjRzlRCslPBStMl9rLlvWRMDb2x83bzxL9+QmTmqbbh6ZwYArBJmBejYb8/HrD2jbe7ygDHR0boZ543rCWE8rBRTyoQilBl4x0QXtW9RA3xFzKDPjGyxcfxgLxnRJgUY5qgPvP8L8eSvSLcygwQ5cIUg3ipwBR0B6BHzOXsSa1ekPXcwVAumxVygFC3UrrvjfD0Q52zLimnidghDYuPuEYDjYzKE+ti10Rx5aEUir5Kbwn/UqmmPdwrGo79wfS9fuxKTBHVAwv/LGZK9cxQ6LlkxNa2pC+5cvEQi494Tck44L5716u6IFKUC5yEVTUzN7bI9IBBTvxBHIQARatW4CC0vJfh8+fvyGO7cDccb7jCCh+5C+aNhIsR5bioYiy64QWJeyEYvdgwcPuUIgFhnFVfo9eot8lI1tjFtbiZSBfyWpV8kCA/r2wOp1m7HzxG30b1f932al+lyyZDGKZV5MKpnCwvrB6+Q1LF60A69evsRqj9HCFopUTHhnjgBHQC4IVK9uCXZIXlohOHggDh/yxcoVexASEowFCwdITq5kPbNsHIIypeMT9yTH+/JF3+RV/FzBCPj4XkK+fHlQtWwJmUYa3auJQDdvySqZ6JWZSF+/IHr0dMCmzVNw86Y/Ro1cQXYUv5VZZC4bR4Aj8A8CRkaFMdi9NZavHEfRRk9i1szt/7Sq1scsqxCYm5eAWQnRH6BDhw4iOOSdal2lLCAtORGIpDyWdFpa+bO+gV0Fiofu4toS3qcv4erVp5JCw/txBDgCSoJAw4Zl0bJVE+za6Yn794OVRCrpxMiyCgGDoV490bj5sbGxCPC/Jx1KvHe6EMiZM/42+4+8CGQpzPuAldy5s+wOl5DMaODANmD355kz/P6U5T7hNByBzESApT0eNrwTGU9Hw9c3MDNFkXnsLK0Q1KxRgwJEJJ3ir1+/cOBA+q1IZUY8GxLWtq9GMQb+4HVouEyzP3vrpUDXv3dXmehVhcjUVFsQdflSD1URmcvJEeAI/INAiRLxz/DaNaoZfjzpr+U/E8sKHytWqkh716J5qffv34fnL15khSmqxByqlTNHTGwcrt55KLW8sRSXYPmmQ3Qd86JRTVup6VWJgNsOqNLV4rJyBEQRYC8+qlyytEJgYmyM5s3FZ41z69cPkVFRqnztVEb2bu2aCqGJx8xcg+fBX6WSe8F6T1y5chVd2rVAWXMdqWhVrfPx4/FbBdWqVVE10bm8HAGOACFw6NBtAYdKlVXT/TBLKwRsz3n02DHITzHykxc/v7vw8jqZvJqfKwABa1Md7Fg7H98iIlG1eR9cufcCLKdBauVzeBRWUlbGqQvWwcbaApPcO6XWXaXb/vz5g8DAtxg+dLowj1592qj0fLjwHIHshsDv339w69ZzjBwe/wy7dhX/IqrsuGRdK63/I1/Kygpt2rbD9m1bk1yLuLg4jBwxEsbGZqhaJT5lZZIO/ESuCHRysEMBtWmYvHgbmruOQfkyJeHawQklzQxgUqwwxSfIia8RMXj97jPuBjzDtr1H8fT5K4wb3h+uretQHIM8CPuS8oqOdkF1gYdchZaS2atXH8l1ULqtqPCvERTY5Bz8/Z/h8+dwlK9Qhla17KQcmXfnCHAE5IGAn99rPH0aJhWrz5+/4ejh43jy9K1AV6duddStayUVD2XpnOUVAgb0oIEDsW/vXrLgjkmC+5cvn9HFpRO8Tp2Chbl5kjZ2Ev7tG/3I5IaGhnLH0BcRXMkq1u/zwQY6Eso3wtX3yi3hSKhL6f+cxWvAjrSKn9ca2NlYpNVNoe1Xr1DgJLe5Mo2RK1culChhgvkLhlGkQjWZeHAijgBHIH0I7Nl9TObQxWxFuoytNebOGyR4DaVPksyhzhYKgbW1NZYsXYYB/fuJoPz+fRh69OiOFStWwa5c2STtzAXMpXNn9OzdF00aN+SKQRJ0JD8JCQmhN+dbkhOoaE8TE2M4O7eUSPq4uJ+4ePEyvn//LvRnKwPbtk+FkVERieh5J44AR0D+CJQrZ0vPcOrbmQmjskRt3t5nBfsoVle/QU1s2DgWhVQ4M2u2UAiY66FrFxdcvXIZO3YkjSLFfOPv+fmhffu2WLd2Peztayb6u+vp6qJ6jZro3tUFlpYl0a59Bzg5OsLGpnTCPcH/S4DA4J7t4NJWsXtqxnoFJJBEsV3sa9mAHZKW2NgRCAr6jEMHz2PL5iPo13ch1ngMo22srG08KSk+vB9HIKMR6OxSF+yQtMTEjMKLFx8pGJEX9uw+SavRy7FwkRv09QtJykKp+mULhSAB8fETJsDHxwehoaKRCkPfvUOnTh0waJA7Ro0aibwUe58VV1dXzJs7G8+ePcXsWTOwetUKVK5cFZOnTKYVhXIJrPn/VBDQ1lIHO3hJikC+fLkp94EeRo/pgLr1KqJdm+EYP24tNm8Zizx5stWjmRQYfsYRUBEE1NTy0AuiAWbM7EnPcGW0aT0YRbQLYPnygSoyg6RiZmkvg6RTBYobGdESzxmYmJgmbxLOIyMjMZd+/J2cnOhLeQu+0XKuiXFxLF6yLLF/eHg4RZI7jVq0ktChY0fs3LkL70JDE9v5B46AtAjkzJkD1apZYsQoN3gePYN7915Ly4L35whwBDIRAfYMN2pUFgMH98GWTfto1eBDJkoj+9DZSiFgMLF93i1bt6WK2BXaWhg6xB2lrK2wnGwL2rVrQ1/Y1UVoTp44joED+6N6tWqYM3c+vnyVzsdehCGvyNYIDBzoIMz/8OGb2RoHPnmOgKoiMHx4C0H048fvquQUsp1CkIOy7FSqWAH+Afcp10H9FC8a8w2PiIjAhPFjhJWF169fie37+/dvMG+F2bOmo7ydHfr07Yvz530pY51khilimfLKbIlAwjbByuVrs+X8+aQ5AqqOQJ48uYQprF/LQxer1LUsYWaGPXv30LJ/Z4nkDgtL2zeVKQZ7du+iLYcWsLW1xZmz58AUC144AhwBjgBHgCOg7AhkuxWCfy9IfvX8WLVyBdauW08/4EldDv/tJ8vnkJBgOLd2ogAVdTFjxgwEPpA+jr8s43Ia1UXAx+eRILxt2TKqOwkuOUcgGyPgffqBMHsbm1IqiUK2VgjYFWPJjzp36oTT3t4YN36i2DDH6bmyLETywoUL0KB+XVqR2JseVpw2CyPw4UME+vebKMywd5/2WXimfGocgayJQEjIV/TuNUaYXJeurVVykty36f+XrYCmJrl8jRUCEZ32PoUTx09STuv0LfmrqamhTt16aNOmDWrWtMeK5Uvh4cFT26rkkyKB0J8/R+HNmy8S9PzbJSoqBk8ev8LmzYfx/v1nlDA3haNjhb8d+CeOAEcgwxAIpuRrHz9GSjVeZGQ0AvyfYuuWwwJdGdtSaNhQNWPVcIUg2aVnXgh9+/QVjlevX+PAgYMUNGYjxZn/gqiotG8UFr+gYMGCQv6EPsTHqqRl4ggsQBIvWReBU14XZQ5dzFDR0ipI/swDUbRo5gdZyrpXic+MI5AyAiuW75A5dDHjqqunQ+HH3aGuniflQZS4hSsEqVwcM1NTjBo5QjhatmqFcz5nU+kNCmzkQhEP26G0jQ309fTAFYBU4eKNhIAZGbdaWVuiYiULtGxZC9bWBhwXjgBHQIUQsLCwQCmbkhSwzhKtW9cm1/aiKiR9UlG5QpAUD7Fnx06cFKsMsGQWhoZGFKegPbq4doF5iRJi6Xll9kDApUtTsIMXjgBHQDURmDd/MNiRXQtXCNK48i9fvcYAt75JejFDRNeu3emNzhG2ZWyhra2dpJ2fcAQ4AhwBjgBHQNUQ4ApBGlds69YtYOGKNcno0MTUjJIbOaFb9+4wNCiWBiVv5ghwBDgCHAGOgOogwBWCVK7VXb97OHzoIAYMHIxOHTtQvvoSgsFgKiS8iSPAEeAIcAQ4AiqJAFcIUrls79+/x6nTZ2BQTD+VXryJI8AR4AhwBDgCqo8AVwhSuYZNm8Qnm0mlC2/iCHAEOAIcAY5AlkCAO8ZnicvIJ8ER4AhwBDgCHIH0IcAVgvThx6k5AhwBjgBHgCOQJRDgCkGWuIx8EhwBjgBHgCPAEUgfAlwhSB9+nJojwBHgCHAEOAJZAgGuEGSJy8gnwRHgCHAEOAIcgfQhwBWC9OHHqTkCHAGOAEeAI5AlEOAKQZa4jHwSHAGOAEeAI8ARSB8CXCFIH36cmiPAEeAIcAQ4AlkCAa4QZInLyCfBEeAIcAQ4AhyB9CHAFYL04cepOQIcAY4AR4AjkCUQ4ApBlriMfBIcAY4AR4AjwBFIHwJcIUgffpyaI8AR4AhwBDgCWQIBrhBkicvIJ8ER4AhwBDgCHIH0IcAVgvThJxV18eLGYvv//v1HbD2vlA8CP2J+ysSoYEEtsXTR0bFi6zOz8kdUnNjhcyAH1PLlFdvGK+WDQMyPKPz35z/5MONcxCLw4UOY2HpZKsNC5cdLlvFTorl166HYply5comtV0QlVwgUgWoKPIsVMxDbcv9JsNh6XikfBB4HfRLLqEgRbbH1CZWmZmYJH5P83751P379Ui4l7sRJ/yQyJpzkypUThQoVSjjl/9OBQJ48eZEvXz4RDi+ePsHXsBCRel4hHwRioiJxzddHLDNt7ZSf4YKammJpbt68hadPP4hty6zKb+HR8D7tLXZ4IyNDsfWKqOQKgSJQTYGnoaGR2JZ9h4/j0WvlukHFCqqilfuP+YqVvH6DhmLrEyobNKgH9iOQvAQ+eI5r1x4nr86080+fIrBg3lqx47sPGS62nldKj0D+/OowNTEVIfz5Mw6rJ4/Cj2/hIm28Iv0IBFy5gOCXL0QY6erqoYSpqUh9QkXRokVhZ1ch4TTJf481BxAX9ytJXWae7Np1DpGRUSIi6OjooKSlhUi9oiq4QqAoZMXwtSlTSkwt8O3bN/QeuRDfo5RvKVqswCpU+TQ4HEvX7RQrce3atcTWJ1SyL5vy5csnnCb+D//6DUMGL8CjR+8T6zLrQ3T0T0ycsBlPnjwXK0K7dm3E1vNK6RHInTs3nFq2Ekt43tsLq0gp4EW+CNz18cKUAd3xg7ZlkhdLS0vkzSuqsP/br1Vr539PEz9v3XIIixYeTTzPzA/Hj9/HtKkrxIrg1LK12FUpsZ3lUJlbDjw4CwkRKKBZALPnzsf4saNFKK7e9INz/zkY0acNbK1MYKRbUKQPr5AMgSj6kXzz/hsOel3CpDmrxRJpaxdF7VqpKwSMsGmzZrh584YIj+fPX6JJ475o36EpGjSoDDV1NZE+iq64euUOTp+6BT+/ALFDNWzUGGapvEGJJeKVqSLQsqUTlixeRAqY6ArRsb078OldMOybt4KphVWqfHhj6giEf/2MOxd8cNbzEKIiI8V2bu3snKZC0LZNa3h4rEJYaGgSHj9//sSc2ctx504AHB2rw8S0eJL2jDh5FxKKs2fv4sD+E2KHU1fPj2ZNm4htU1RlDmKcxBrG3MICPmd9kNrejKKEyQ58IyIiUNO+Jl69fCl2unny5KGbPDdy094vL7Ih8B9t7//6/RsxsXH480f8Xn/Xrt2wYsUK5MyZOs5h79/D0sI8VUHYm2POnOxRytgSF5e6seS+/QfQtEnGfqFkLAKZM9pRT0/06N4N7EdFXGH3VC66J3iRHYE/9Pz+piOlUrlyFXh7e4M9e6kV9vxPnz4dixYtTLFbjhw5aGswdT4pEqej4dev3yl+PzG29erVx/79++W6QhAQEAAHh8a0PZFUyZo6dSqmTJmCjEchHQBmBVINDQ307NkbkyaOFzsd9iWT0heNWAJeKTUCpUqVxvgJE9JUBhhjfT09eJ3yRldXF3z8+FHsWL9+Kc9eZIKA7kOGoVHDhgmn/L8cEWjQoAHYUvT+fXvFcmU/Qn/ixHt9iCXglVIhUMzAAB5r16apDDCmTDkbPnw4bt66hUsXL4gd57///iN7AvHKnViCDKi0tCyJNR4eclUGJBE79dcjSTjwPlIhwG7QoUPc0b//QKnoeGf5IJA/f35aQvSAIX2pSFpq1qiOSZOnSNo90/s1adoMs2bOkOgLM9OFVUEBNEmp37RxI5zbtFVB6VVf5EULl5ChnaXEEylYsCDWrF4NY2NjiWkys6OWlhY2b9ki1XeUpPL++PGDPKRSfoERUQhiYmJIW+LaraQAy9pvxozppLmOlJWc08mAQOnSNmDL6HZ2dlJRsyVF1y5dsP/AQdjYlJGKNiM7M6vqadNnYP26dRk5bLYda+mSJXAjxT5/fo1si0FGTrxKlarwOedLe/7NpR7WxMQEZ2grvG279mnaHUjNXE4E7HumTt16OH36DMqVLSsnrknZfPr0Eew3PnkxMjISqkQVguhorhAkR0sB58yfedq0qThFF9+YbtaMDD6hgOkoNUuGtbNzG3h6HkOd2rUl2ipIPiG2V9nEwQGnTp3CgIGDhB8BZbhm7EtETU0NDWl74KjncQwfNozHHUh+8RR0XrhwYSyYPw8nTp4Ecw8TF6NAQUNnG7bsuWNxNMZPmIRjx46hSuVKMs/doFgxrFu3Fhs3bxW+c5XlejFPCQMDQ3is24BDB9lLR2mZ55gW4dNnL8R2KVCggFAvYlTIarkxkljMFFb54cNH3Lp9i7Tfc3gYGChYtXM7gvTBXaRIEVSrXgOVKlWCQ2MHlC1rmz6G/1CzPeLQsPd4EHgffvfu4dOnTwgn19GMLHkpPoIBbXtYmJdAOVrxsCBj4NwZGNEsI+eqCmOx5/XR48cI8PfH8+cvEBL6ThXEVloZtSlomJ6uDrn9VoCVlRX09HRlUuRTmuC3798Fw+4bN28KtkFBb96k1FVh9eytvDBtD1SpWlV4foumEmRJXkIMGTqMtrvWi7C7ceMGqlSpQnFNk3kZsJ5jx03EhPFjRYh4BUeAI8AR4AhwBDgCqolAY1rlvHb1iojwb9++BVNQRLYMWM/jxzxFCHgFR4AjwBHgCHAEOAKqicAzWrkSpwyYUYj2RBsCfX19kdkFBgbg2TPxkc9EOvMKjgBHgCPAEeAIcASUGoHz58+Lla9z586J9Tl79uyZePLvhxMnxUdP+rcP/8wR4AhwBDgCHAGOgHIjwNwNd+3cIVbI3r17J9bndKbwj+KiPR0+RCEjo34kduQfOAIcAY4AR4AjwBFQPQSCgoLwQkyCqDJlysDU1DRxQjlZgghra+vEioQPgWRB/ez5s4RT/p8jwBHgCHAEOAIcARVE4AC94Id//SoiOfMs+LfkZP6HlStX/rdO+MyCE82aOZPHJBBBhldwBDgCHAGOAEdANRBgLpVr16wRK2zz5kmDPOVkgU0GDBggtvOpU17wvSA+/rNYAl7JEeAIcAQ4AhwBjoBSIMASRM2ZPRvfvoWLyMPimDg6OiapF9wOWfAWFxeXJA0JJwvmz+erBAlg8P8cAY4AR4AjwBFQEQQCHzygUMinRaRlUVY3bdpEWR7zJGlLjEMwadIksKQKycuNG9exacvW5NX8nCPAEeAIcAQ4AhwBJUZg5oyZFEn1o4iELJ9L3bp1ReoTFQIWnKBevXoiHVhqyFEjhuG8r69IG6/gCHAEOAIcAY4AR0C5EPhJGQ0nTJxIuVdOihXMzc1NbO6NHPSD/18CRVhYGIpRAghxhWWKY/GOeeEIcAQ4AhwBjgBHQHkRuHjpMtq2cUZ0tGjogGrVquHatWtihU9cIWCtLGrhhg0bRPYVWNvDhw+EFQSWiIcXjgBHgCPAEeAIcASUCwH2fs8cAQb0dxOrDOjp6WHHDvEBithMkigErKJjx45C1iP2OXm5TRn5xk8YD56JLzky/JwjwBHgCHAEOAKZhwBTBl5TACKmDAQFvRYRhHkUDhw4EObm5iJtCRUiCoGGhga2bduGUqVKJfRJ8n/vnt1o36EDQkJ4es8kwPATjgBHgCPAEeAIZBICFy5eRPNmTcEyF4orrq6uGDVqlLimxLokNgSJtfTBx8cHrVu3RkRExL/ViZ/r1W+AVStXwtDQUK55qhMH4B84AhwBjgBHgCPAEUgVAbZif+36DfTq2QNhYaFi+5YvXx5nz55FkSJFxLYnVIqsECQ01K9fHx4eHmItEVmf8+d8wKIc7dq9J4GE/+cIcAQ4AhwBjgBHIIMQ+EFGg6PHjBEMCFNSBthq/969e9NUBpjIKa4QJMyHGRmyfQcWyjil0r1HT4wYMQLGxYvz1YKUQOL1HAGOAEeAI8ARkAMCbFXg5s1bcHPrh9evX6XIkRkRHj9+HCz4oCQlTYXgF/kz7tu3DyxNcmxsbIo8DWjroEXzFqStjIaerl6K/XgDR4AjwBHgCHAEOAKyIXDP3x9TJk/CrVu3UtzSZ5zZNsH27dtRunRpMINCSUqaCkECk4MHD5I24kZRjz4lVIn9X6SINvrTikIrJycYGhmhgKam2H68kiPAEeAIcAQ4AhyB1BH48+cPvoaH40FgIA4dPoKNG9alTkCtbEVg165dYNmMpSkSKwSCS8Pr12jVqhUCAgLSHKNw4SLQ1taGSxdX1KpVC1WriGZUTJMJ78AR4AhwBDgCHIFsiEB0TAwuXbqCo0cO48JFX7ynwIExVJdaYSsBgwcPxvTp08WmIkiNlrVJrBAkMGLRDEePHo2jR4/i+/fvCdVp/tfR0UX16jWgQ3saJibGKEDujfr6fGshTeB4B44AR4AjwBHI8gg8e/ESP+N+4g25Db6leALnzp2Vas4s/cCgQYPg7u6O3LlzS0Wb2Jne/KUuZFfw38WLF/+zsLBgYY/5wTHg9wC/B/g9wO8Bfg9k0j3Qtm3b/0JDQ6X+LU9OIPUKQaImQR+YkeG8efOwe/duPH36FGyvgxeOAEeAI8AR4AhwBBSLAAsiWKNGDQwYMEDYypfHaOlSCBIEiI6OxsmTJwXBPnz4kFDN/3MEOAIcAY4AR4AjIGcEWGbiJUuWwMbGRvbtATEyyUUhSODLFANvb2+cOXOGjCEu4dGjRzzvQQI4/D9HgCPAEeAIcARkQKBQoUIoW7Ys7O3t4ezsLLgU5syZYlxBGUaIJ5GrQpBcii9fvgiuD15eXsIKQvJ2fs4R4AhwBDgCHAGOgCgCmuSyT7YB6Natm6AIyGwoKMo6xRqFKgTJRw0ODsbz58+FajKASDXQUXJafs4R4AhwBDgCHIGsikDhwoUFV0GWb0BfXx+6uroZPtUMVQgyfHZ8QI4AR4AjwBHgCHAEJELgfwqROAjHbn7FAAAAAElFTkSuQmCC;" vertex="1" parent="1">
          <mxGeometry x="870" y="228.76" width="200.69" height="139.24" as="geometry" />
        </mxCell>
        <mxCell id="UCFuStM6_gSOsOG1VShK-84" value="Output" style="text;html=1;strokeColor=none;fillColor=none;align=center;verticalAlign=middle;whiteSpace=wrap;rounded=0;" vertex="1" parent="1">
          <mxGeometry x="1123" y="90" width="130" height="30" as="geometry" />
        </mxCell>
        <mxCell id="UCFuStM6_gSOsOG1VShK-88" style="edgeStyle=orthogonalEdgeStyle;rounded=0;orthogonalLoop=1;jettySize=auto;html=1;exitX=1;exitY=0.5;exitDx=0;exitDy=0;entryX=0;entryY=0.5;entryDx=0;entryDy=0;strokeWidth=3;" edge="1" parent="1" source="UCFuStM6_gSOsOG1VShK-85" target="UCFuStM6_gSOsOG1VShK-86">
          <mxGeometry relative="1" as="geometry" />
        </mxCell>
        <mxCell id="UCFuStM6_gSOsOG1VShK-85" value="Raccoons love eating.&lt;br&gt;They are playful." style="text;html=1;strokeColor=none;fillColor=none;align=center;verticalAlign=middle;whiteSpace=wrap;rounded=0;" vertex="1" parent="1">
          <mxGeometry x="-530" y="288" width="130" height="30" as="geometry" />
        </mxCell>
        <mxCell id="UCFuStM6_gSOsOG1VShK-87" style="edgeStyle=orthogonalEdgeStyle;rounded=0;orthogonalLoop=1;jettySize=auto;html=1;exitX=1;exitY=0.5;exitDx=0;exitDy=0;entryX=0;entryY=0.5;entryDx=0;entryDy=0;strokeWidth=3;" edge="1" parent="1" source="UCFuStM6_gSOsOG1VShK-86" target="UCFuStM6_gSOsOG1VShK-60">
          <mxGeometry relative="1" as="geometry" />
        </mxCell>
        <mxCell id="UCFuStM6_gSOsOG1VShK-86" value="text preprocessing + masking" style="shape=parallelogram;perimeter=parallelogramPerimeter;whiteSpace=wrap;html=1;fixedSize=1;fillColor=#f5f5f5;fontColor=#333333;strokeColor=#666666;" vertex="1" parent="1">
          <mxGeometry x="-370" y="273" width="150" height="60" as="geometry" />
        </mxCell>
        <mxCell id="UCFuStM6_gSOsOG1VShK-7" value="Raccon" style="rounded=0;whiteSpace=wrap;html=1;fillColor=#f5f5f5;fontColor=#333333;strokeColor=#666666;" vertex="1" parent="1">
          <mxGeometry x="-10" y="160" width="150" height="30" as="geometry" />
        </mxCell>
        <mxCell id="UCFuStM6_gSOsOG1VShK-9" value="[MSK]" style="rounded=0;whiteSpace=wrap;html=1;fillColor=#f5f5f5;fontColor=#333333;strokeColor=#666666;" vertex="1" parent="1">
          <mxGeometry x="-10" y="220.76" width="150" height="30" as="geometry" />
        </mxCell>
        <mxCell id="UCFuStM6_gSOsOG1VShK-10" value="eat" style="rounded=0;whiteSpace=wrap;html=1;fillColor=#f5f5f5;fontColor=#333333;strokeColor=#666666;" vertex="1" parent="1">
          <mxGeometry x="-10" y="250.76" width="150" height="30" as="geometry" />
        </mxCell>
        <mxCell id="UCFuStM6_gSOsOG1VShK-11" value="[SEP]" style="rounded=0;whiteSpace=wrap;html=1;fillColor=#f5f5f5;fontColor=#333333;strokeColor=#666666;" vertex="1" parent="1">
          <mxGeometry x="-10" y="310" width="150" height="30" as="geometry" />
        </mxCell>
        <mxCell id="UCFuStM6_gSOsOG1VShK-12" value="They" style="rounded=0;whiteSpace=wrap;html=1;fillColor=#f5f5f5;fontColor=#333333;strokeColor=#666666;" vertex="1" parent="1">
          <mxGeometry x="-10" y="340" width="150" height="30" as="geometry" />
        </mxCell>
        <mxCell id="UCFuStM6_gSOsOG1VShK-17" value="are" style="rounded=0;whiteSpace=wrap;html=1;fillColor=#f5f5f5;fontColor=#333333;strokeColor=#666666;" vertex="1" parent="1">
          <mxGeometry x="-10" y="370" width="150" height="30" as="geometry" />
        </mxCell>
        <mxCell id="UCFuStM6_gSOsOG1VShK-18" value="play" style="rounded=0;whiteSpace=wrap;html=1;fillColor=#f5f5f5;fontColor=#333333;strokeColor=#666666;" vertex="1" parent="1">
          <mxGeometry x="-10" y="400" width="150" height="30" as="geometry" />
        </mxCell>
        <mxCell id="UCFuStM6_gSOsOG1VShK-21" value="[SEP]" style="rounded=0;whiteSpace=wrap;html=1;fillColor=#f5f5f5;fontColor=#333333;strokeColor=#666666;" vertex="1" parent="1">
          <mxGeometry x="-10" y="460" width="150" height="30" as="geometry" />
        </mxCell>
        <mxCell id="UCFuStM6_gSOsOG1VShK-22" value="[CLS]" style="rounded=0;whiteSpace=wrap;html=1;fillColor=#f5f5f5;fontColor=#333333;strokeColor=#666666;" vertex="1" parent="1">
          <mxGeometry x="-10" y="130" width="150" height="30" as="geometry" />
        </mxCell>
        <mxCell id="UCFuStM6_gSOsOG1VShK-89" value="##s" style="rounded=0;whiteSpace=wrap;html=1;fillColor=#f5f5f5;fontColor=#333333;strokeColor=#666666;" vertex="1" parent="1">
          <mxGeometry x="-10" y="190.76" width="150" height="30" as="geometry" />
        </mxCell>
        <mxCell id="UCFuStM6_gSOsOG1VShK-90" value="##ing" style="rounded=0;whiteSpace=wrap;html=1;fillColor=#f5f5f5;fontColor=#333333;strokeColor=#666666;" vertex="1" parent="1">
          <mxGeometry x="-10" y="280.76" width="150" height="30" as="geometry" />
        </mxCell>
        <mxCell id="UCFuStM6_gSOsOG1VShK-91" value="##ful" style="rounded=0;whiteSpace=wrap;html=1;fillColor=#f5f5f5;fontColor=#333333;strokeColor=#666666;" vertex="1" parent="1">
          <mxGeometry x="-10" y="430" width="150" height="30" as="geometry" />
        </mxCell>
        <mxCell id="UCFuStM6_gSOsOG1VShK-92" value="9" style="rounded=0;whiteSpace=wrap;html=1;fillColor=#dae8fc;strokeColor=#6c8ebf;" vertex="1" parent="1">
          <mxGeometry x="220" y="400" width="150" height="30" as="geometry" />
        </mxCell>
        <mxCell id="UCFuStM6_gSOsOG1VShK-93" value="10" style="rounded=0;whiteSpace=wrap;html=1;fillColor=#dae8fc;strokeColor=#6c8ebf;" vertex="1" parent="1">
          <mxGeometry x="220" y="430" width="150" height="30" as="geometry" />
        </mxCell>
        <mxCell id="UCFuStM6_gSOsOG1VShK-94" value="11" style="rounded=0;whiteSpace=wrap;html=1;fillColor=#dae8fc;strokeColor=#6c8ebf;" vertex="1" parent="1">
          <mxGeometry x="220" y="460" width="150" height="30" as="geometry" />
        </mxCell>
        <mxCell id="UCFuStM6_gSOsOG1VShK-95" value="A" style="rounded=0;whiteSpace=wrap;html=1;fillColor=#d5e8d4;strokeColor=#82b366;" vertex="1" parent="1">
          <mxGeometry x="450" y="280" width="150" height="30" as="geometry" />
        </mxCell>
        <mxCell id="UCFuStM6_gSOsOG1VShK-96" value="A" style="rounded=0;whiteSpace=wrap;html=1;fillColor=#d5e8d4;strokeColor=#82b366;" vertex="1" parent="1">
          <mxGeometry x="450" y="310" width="150" height="30" as="geometry" />
        </mxCell>
        <mxCell id="UCFuStM6_gSOsOG1VShK-97" value="B" style="rounded=0;whiteSpace=wrap;html=1;fillColor=#d5e8d4;strokeColor=#82b366;" vertex="1" parent="1">
          <mxGeometry x="450" y="460" width="150" height="30" as="geometry" />
        </mxCell>
        <mxCell id="UCFuStM6_gSOsOG1VShK-98" value="" style="rounded=0;whiteSpace=wrap;html=1;fillColor=#fff2cc;strokeColor=#d6b656;" vertex="1" parent="1">
          <mxGeometry x="680" y="395" width="150" height="30" as="geometry" />
        </mxCell>
        <mxCell id="UCFuStM6_gSOsOG1VShK-99" value="" style="rounded=0;whiteSpace=wrap;html=1;fillColor=#fff2cc;strokeColor=#d6b656;" vertex="1" parent="1">
          <mxGeometry x="680" y="425" width="150" height="30" as="geometry" />
        </mxCell>
        <mxCell id="UCFuStM6_gSOsOG1VShK-100" value="" style="rounded=0;whiteSpace=wrap;html=1;fillColor=#fff2cc;strokeColor=#d6b656;" vertex="1" parent="1">
          <mxGeometry x="680" y="455" width="150" height="30" as="geometry" />
        </mxCell>
        <mxCell id="UCFuStM6_gSOsOG1VShK-74" value="&lt;sub&gt;&lt;span style=&quot;font-size: 12px;&quot;&gt;[MSK]&lt;/span&gt;new&lt;/sub&gt;" style="rounded=0;whiteSpace=wrap;html=1;fillColor=#e1d5e7;strokeColor=#9673a6;" vertex="1" parent="1">
          <mxGeometry x="1113" y="215" width="150" height="30" as="geometry" />
        </mxCell>
        <mxCell id="UCFuStM6_gSOsOG1VShK-75" value="eat&lt;sub&gt;new&lt;/sub&gt;" style="rounded=0;whiteSpace=wrap;html=1;fillColor=#e1d5e7;strokeColor=#9673a6;" vertex="1" parent="1">
          <mxGeometry x="1113" y="245" width="150" height="30" as="geometry" />
        </mxCell>
        <mxCell id="UCFuStM6_gSOsOG1VShK-76" value="[SEP]&lt;sub&gt;new&lt;/sub&gt;" style="rounded=0;whiteSpace=wrap;html=1;fillColor=#e1d5e7;strokeColor=#9673a6;" vertex="1" parent="1">
          <mxGeometry x="1113" y="305" width="150" height="30" as="geometry" />
        </mxCell>
        <mxCell id="UCFuStM6_gSOsOG1VShK-77" value="They&lt;sub&gt;new&lt;/sub&gt;" style="rounded=0;whiteSpace=wrap;html=1;fillColor=#e1d5e7;strokeColor=#9673a6;" vertex="1" parent="1">
          <mxGeometry x="1113" y="335" width="150" height="30" as="geometry" />
        </mxCell>
        <mxCell id="UCFuStM6_gSOsOG1VShK-78" value="are&lt;sub&gt;new&lt;/sub&gt;" style="rounded=0;whiteSpace=wrap;html=1;fillColor=#e1d5e7;strokeColor=#9673a6;" vertex="1" parent="1">
          <mxGeometry x="1113" y="365" width="150" height="30" as="geometry" />
        </mxCell>
        <mxCell id="UCFuStM6_gSOsOG1VShK-79" value="play&lt;sub&gt;new&lt;/sub&gt;" style="rounded=0;whiteSpace=wrap;html=1;fillColor=#e1d5e7;strokeColor=#9673a6;" vertex="1" parent="1">
          <mxGeometry x="1113" y="395" width="150" height="30" as="geometry" />
        </mxCell>
        <mxCell id="UCFuStM6_gSOsOG1VShK-80" value="[SEP]&lt;sub style=&quot;border-color: var(--border-color);&quot;&gt;new&lt;/sub&gt;" style="rounded=0;whiteSpace=wrap;html=1;fillColor=#e1d5e7;strokeColor=#9673a6;" vertex="1" parent="1">
          <mxGeometry x="1113" y="455" width="150" height="30" as="geometry" />
        </mxCell>
        <mxCell id="UCFuStM6_gSOsOG1VShK-73" value="Raccon&lt;sub&gt;new&lt;/sub&gt;" style="rounded=0;whiteSpace=wrap;html=1;fillColor=#e1d5e7;strokeColor=#9673a6;" vertex="1" parent="1">
          <mxGeometry x="1113" y="155" width="150" height="30" as="geometry" />
        </mxCell>
        <mxCell id="UCFuStM6_gSOsOG1VShK-81" value="[CLS]&lt;sub&gt;new&lt;/sub&gt;" style="rounded=0;whiteSpace=wrap;html=1;fillColor=#e1d5e7;strokeColor=#9673a6;" vertex="1" parent="1">
          <mxGeometry x="1113" y="124.99999999999999" width="150" height="30" as="geometry" />
        </mxCell>
        <mxCell id="UCFuStM6_gSOsOG1VShK-108" value="##s&lt;sub&gt;new&lt;/sub&gt;" style="rounded=0;whiteSpace=wrap;html=1;fillColor=#e1d5e7;strokeColor=#9673a6;" vertex="1" parent="1">
          <mxGeometry x="1113" y="185" width="150" height="30" as="geometry" />
        </mxCell>
        <mxCell id="UCFuStM6_gSOsOG1VShK-109" value="##ing&lt;sub&gt;new&lt;/sub&gt;" style="rounded=0;whiteSpace=wrap;html=1;fillColor=#e1d5e7;strokeColor=#9673a6;" vertex="1" parent="1">
          <mxGeometry x="1113" y="275" width="150" height="30" as="geometry" />
        </mxCell>
        <mxCell id="UCFuStM6_gSOsOG1VShK-110" value="##ful&lt;sub&gt;new&lt;/sub&gt;" style="rounded=0;whiteSpace=wrap;html=1;fillColor=#e1d5e7;strokeColor=#9673a6;" vertex="1" parent="1">
          <mxGeometry x="1113" y="425" width="150" height="30" as="geometry" />
        </mxCell>
        <mxCell id="UCFuStM6_gSOsOG1VShK-114" style="edgeStyle=orthogonalEdgeStyle;rounded=0;orthogonalLoop=1;jettySize=auto;html=1;exitX=1;exitY=0.75;exitDx=0;exitDy=0;entryX=0;entryY=0.5;entryDx=0;entryDy=0;strokeWidth=3;" edge="1" parent="1" source="UCFuStM6_gSOsOG1VShK-53" target="UCFuStM6_gSOsOG1VShK-67">
          <mxGeometry relative="1" as="geometry" />
        </mxCell>
      </root>
    </mxGraphModel>
  </diagram>
</mxfile>
